<svg width="64" height="65" viewBox="0 0 64 65" fill="none" xmlns="http://www.w3.org/2000/svg">
<mask id="path-1-inside-1" fill="white">
<path d="M18.333 45.6806C24.493 51.8406 41.153 63.9907 51.023 63.9907C51.9926 64.0465 52.9635 63.9061 53.8777 63.5779C54.7918 63.2497 55.6303 62.7405 56.343 62.0807C58.7091 59.7313 60.8796 57.1929 62.833 54.4907C63.723 53.2341 64.1136 51.6914 63.9288 50.1627C63.7439 48.634 62.9969 47.2288 61.833 46.2206C58.143 43.0606 49.213 36.0606 46.083 39.2206C43.863 41.4506 37.953 47.3606 34.863 44.2807L19.743 29.1107C16.663 26.0207 22.573 20.1106 24.803 17.8906C27.933 14.7606 20.933 5.83065 17.803 2.14065C16.7948 0.976773 15.3896 0.229697 13.8609 0.0448516C12.3323 -0.139994 10.7895 0.250618 9.53298 1.14065C6.81799 3.08969 4.26926 5.26046 1.91298 7.63065C-5.57702 15.1206 10.833 38.1806 18.333 45.6806ZM47.543 40.6806C48.543 39.6806 53.863 42.0706 60.543 47.8106C61.2836 48.4617 61.7709 49.3531 61.919 50.3281C62.0672 51.303 61.8668 52.299 61.353 53.1407L46.533 41.6207L47.543 40.6806ZM16.253 3.43065C21.993 10.1506 24.423 15.4307 23.383 16.4307C22.953 16.8707 22.383 17.4307 21.803 18.0606L10.803 2.69065C11.6472 2.13383 12.6647 1.90196 13.6668 2.03803C14.669 2.1741 15.5878 2.66887 16.253 3.43065Z"/>
<path d="M32 4.20666e-05C28.4898 -0.00566173 25.0029 0.568743 21.68 1.70004C21.4281 1.78491 21.2201 1.96639 21.102 2.20456C20.9838 2.44274 20.9651 2.71809 21.05 2.97004C21.1349 3.222 21.3164 3.42992 21.5545 3.54807C21.7927 3.66622 22.0681 3.68491 22.32 3.60004C27.6269 1.78946 33.335 1.50241 38.7968 2.77147C44.2585 4.04053 49.2553 6.8149 53.2202 10.7798C57.1852 14.7448 59.9595 19.7415 61.2286 25.2033C62.4976 30.665 62.2106 36.3731 60.4 41.68C60.3491 41.8058 60.3244 41.9405 60.3273 42.0761C60.3301 42.2118 60.3605 42.3454 60.4167 42.4688C60.4728 42.5923 60.5535 42.7031 60.6537 42.7944C60.754 42.8857 60.8718 42.9557 61 43C61.1062 43.0145 61.2138 43.0145 61.32 43C61.5297 43.0006 61.7342 42.9352 61.9046 42.8132C62.0751 42.6912 62.2029 42.5187 62.27 42.32C63.9105 37.5052 64.3794 32.3686 63.6381 27.3363C62.8968 22.3039 60.9664 17.5208 58.0072 13.3835C55.048 9.24628 51.1451 5.87408 46.6222 3.54655C42.0993 1.21903 37.0867 0.0032563 32 4.20666e-05Z"/>
<path d="M32 10C31.7348 10 31.4804 10.1054 31.2929 10.2929C31.1054 10.4804 31 10.7348 31 11V32C31.0003 32.1772 31.0477 32.3511 31.1373 32.504C31.2269 32.6569 31.3555 32.7832 31.51 32.87L40.51 37.87C40.6595 37.9547 40.8282 37.9995 41 38C41.2206 37.9993 41.4347 37.9258 41.6091 37.7907C41.7835 37.6557 41.9084 37.4668 41.9643 37.2535C42.0202 37.0401 42.004 36.8143 41.9182 36.6111C41.8324 36.4079 41.6819 36.2387 41.49 36.13L33 31.41V11C33 10.7348 32.8946 10.4804 32.7071 10.2929C32.5196 10.1054 32.2652 10 32 10Z"/>
<path d="M32 4.5C31.7033 4.5 31.4133 4.58797 31.1666 4.7528C30.92 4.91762 30.7277 5.15189 30.6142 5.42597C30.5007 5.70006 30.4709 6.00166 30.5288 6.29264C30.5867 6.58361 30.7296 6.85088 30.9393 7.06066C31.1491 7.27044 31.4164 7.4133 31.7074 7.47118C31.9983 7.52906 32.2999 7.49935 32.574 7.38582C32.8481 7.27229 33.0824 7.08003 33.2472 6.83336C33.412 6.58668 33.5 6.29667 33.5 6C33.5 5.60218 33.342 5.22064 33.0607 4.93934C32.7794 4.65804 32.3978 4.5 32 4.5ZM32 6.5C31.9011 6.5 31.8044 6.47068 31.7222 6.41573C31.64 6.36079 31.5759 6.2827 31.5381 6.19134C31.5002 6.09998 31.4903 5.99945 31.5096 5.90245C31.5289 5.80546 31.5765 5.71637 31.6464 5.64645C31.7164 5.57652 31.8055 5.5289 31.9025 5.50961C31.9994 5.49031 32.1 5.50022 32.1913 5.53806C32.2827 5.5759 32.3608 5.63999 32.4157 5.72221C32.4707 5.80444 32.5 5.90111 32.5 6C32.5 6.13261 32.4473 6.25979 32.3536 6.35355C32.2598 6.44732 32.1326 6.5 32 6.5Z"/>
<path d="M44.2498 10.7799C44.4752 10.92 44.7345 10.9961 44.9998 10.9999C45.2633 11.0001 45.5221 10.9308 45.7503 10.7992C45.9786 10.6675 46.1681 10.4781 46.2998 10.2499C46.4225 10.0362 46.4907 9.79548 46.4983 9.54912C46.5059 9.30276 46.4527 9.05833 46.3433 8.83744C46.234 8.61656 46.0719 8.42601 45.8714 8.28267C45.6709 8.13934 45.4381 8.04761 45.1937 8.01562C44.9493 7.98363 44.7008 8.01235 44.4702 8.09925C44.2395 8.18614 44.0339 8.32854 43.8713 8.51384C43.7088 8.69914 43.5944 8.92163 43.5384 9.16164C43.4823 9.40165 43.4862 9.65178 43.5498 9.88991C43.6013 10.0774 43.6898 10.2527 43.81 10.4055C43.9302 10.5584 44.0797 10.6856 44.2498 10.7799ZM44.5698 9.22991C44.6159 9.15806 44.6796 9.0992 44.7549 9.05894C44.8301 9.01867 44.9145 8.99835 44.9998 8.99991C45.0882 8.99818 45.1752 9.02252 45.2498 9.06991C45.307 9.10202 45.3572 9.14528 45.3974 9.19715C45.4375 9.24901 45.4669 9.30841 45.4837 9.37183C45.5005 9.43524 45.5043 9.50139 45.4951 9.56633C45.4858 9.63128 45.4636 9.69371 45.4298 9.74991C45.3629 9.86318 45.2547 9.9462 45.128 9.98161C45.0013 10.017 44.8658 10.0021 44.7498 9.93991C44.6921 9.90697 44.6419 9.86241 44.6023 9.80905C44.5627 9.75569 44.5346 9.69469 44.5198 9.62991C44.4972 9.56382 44.49 9.49345 44.4987 9.42414C44.5073 9.35484 44.5316 9.28841 44.5698 9.22991Z"/>
<path d="M54.13 20.4499C54.2577 20.4812 54.3885 20.498 54.52 20.4999C54.783 20.4988 55.0413 20.4299 55.27 20.2999C55.4407 20.2014 55.5904 20.0702 55.7104 19.9139C55.8304 19.7576 55.9185 19.5791 55.9696 19.3888C56.0206 19.1984 56.0337 18.9998 56.008 18.8044C55.9824 18.609 55.9185 18.4206 55.82 18.2499C55.7215 18.0791 55.5903 17.9295 55.434 17.8095C55.2777 17.6894 55.0993 17.6014 54.9089 17.5503C54.7185 17.4992 54.52 17.4861 54.3246 17.5118C54.1291 17.5375 53.9407 17.6014 53.77 17.6999C53.5982 17.7973 53.4475 17.9279 53.3266 18.0841C53.2058 18.2403 53.1172 18.419 53.066 18.6098C53.0149 18.8005 53.0021 18.9995 53.0285 19.1953C53.055 19.391 53.12 19.5795 53.22 19.7499C53.3165 19.922 53.4469 20.0727 53.6033 20.1931C53.7597 20.3134 53.9389 20.4007 54.13 20.4499ZM54.27 18.5699C54.3441 18.5213 54.4314 18.4969 54.52 18.4999C54.6291 18.501 54.7349 18.5378 54.8211 18.6046C54.9074 18.6714 54.9694 18.7646 54.9977 18.87C55.0261 18.9754 55.0191 19.0872 54.978 19.1882C54.9369 19.2893 54.8638 19.3742 54.77 19.4299C54.714 19.465 54.651 19.4877 54.5854 19.4963C54.5199 19.5049 54.4532 19.4993 54.39 19.4799C54.3252 19.4651 54.2642 19.437 54.2108 19.3974C54.1575 19.3578 54.1129 19.3076 54.08 19.2499C54.0152 19.1344 53.9988 18.9981 54.0345 18.8706C54.0701 18.7431 54.1548 18.635 54.27 18.5699Z"/>
<path d="M59.5 32C59.5 31.7033 59.412 31.4133 59.2472 31.1666C59.0824 30.92 58.8481 30.7277 58.574 30.6142C58.2999 30.5007 57.9983 30.4709 57.7074 30.5288C57.4164 30.5867 57.1491 30.7296 56.9393 30.9393C56.7296 31.1491 56.5867 31.4164 56.5288 31.7074C56.4709 31.9983 56.5006 32.2999 56.6142 32.574C56.7277 32.8481 56.92 33.0824 57.1666 33.2472C57.4133 33.412 57.7033 33.5 58 33.5C58.3978 33.5 58.7794 33.342 59.0607 33.0607C59.342 32.7794 59.5 32.3978 59.5 32ZM57.5 32C57.5 31.9011 57.5293 31.8044 57.5843 31.7222C57.6392 31.64 57.7173 31.5759 57.8087 31.5381C57.9 31.5002 58.0006 31.4903 58.0975 31.5096C58.1945 31.5289 58.2836 31.5765 58.3536 31.6464C58.4235 31.7164 58.4711 31.8055 58.4904 31.9025C58.5097 31.9994 58.4998 32.1 58.4619 32.1913C58.4241 32.2827 58.36 32.3608 58.2778 32.4157C58.1956 32.4707 58.0989 32.5 58 32.5C57.8674 32.5 57.7402 32.4473 57.6464 32.3536C57.5527 32.2598 57.5 32.1326 57.5 32Z"/>
</mask>
<path d="M18.333 45.6806C24.493 51.8406 41.153 63.9907 51.023 63.9907C51.9926 64.0465 52.9635 63.9061 53.8777 63.5779C54.7918 63.2497 55.6303 62.7405 56.343 62.0807C58.7091 59.7313 60.8796 57.1929 62.833 54.4907C63.723 53.2341 64.1136 51.6914 63.9288 50.1627C63.7439 48.634 62.9969 47.2288 61.833 46.2206C58.143 43.0606 49.213 36.0606 46.083 39.2206C43.863 41.4506 37.953 47.3606 34.863 44.2807L19.743 29.1107C16.663 26.0207 22.573 20.1106 24.803 17.8906C27.933 14.7606 20.933 5.83065 17.803 2.14065C16.7948 0.976773 15.3896 0.229697 13.8609 0.0448516C12.3323 -0.139994 10.7895 0.250618 9.53298 1.14065C6.81799 3.08969 4.26926 5.26046 1.91298 7.63065C-5.57702 15.1206 10.833 38.1806 18.333 45.6806ZM47.543 40.6806C48.543 39.6806 53.863 42.0706 60.543 47.8106C61.2836 48.4617 61.7709 49.3531 61.919 50.3281C62.0672 51.303 61.8668 52.299 61.353 53.1407L46.533 41.6207L47.543 40.6806ZM16.253 3.43065C21.993 10.1506 24.423 15.4307 23.383 16.4307C22.953 16.8707 22.383 17.4307 21.803 18.0606L10.803 2.69065C11.6472 2.13383 12.6647 1.90196 13.6668 2.03803C14.669 2.1741 15.5878 2.66887 16.253 3.43065Z" stroke="url(#paint0_linear)" stroke-width="4" mask="url(#path-1-inside-1)"/>
<path d="M32 4.20666e-05C28.4898 -0.00566173 25.0029 0.568743 21.68 1.70004C21.4281 1.78491 21.2201 1.96639 21.102 2.20456C20.9838 2.44274 20.9651 2.71809 21.05 2.97004C21.1349 3.222 21.3164 3.42992 21.5545 3.54807C21.7927 3.66622 22.0681 3.68491 22.32 3.60004C27.6269 1.78946 33.335 1.50241 38.7968 2.77147C44.2585 4.04053 49.2553 6.8149 53.2202 10.7798C57.1852 14.7448 59.9595 19.7415 61.2286 25.2033C62.4976 30.665 62.2106 36.3731 60.4 41.68C60.3491 41.8058 60.3244 41.9405 60.3273 42.0761C60.3301 42.2118 60.3605 42.3454 60.4167 42.4688C60.4728 42.5923 60.5535 42.7031 60.6537 42.7944C60.754 42.8857 60.8718 42.9557 61 43C61.1062 43.0145 61.2138 43.0145 61.32 43C61.5297 43.0006 61.7342 42.9352 61.9046 42.8132C62.0751 42.6912 62.2029 42.5187 62.27 42.32C63.9105 37.5052 64.3794 32.3686 63.6381 27.3363C62.8968 22.3039 60.9664 17.5208 58.0072 13.3835C55.048 9.24628 51.1451 5.87408 46.6222 3.54655C42.0993 1.21903 37.0867 0.0032563 32 4.20666e-05Z" stroke="url(#paint1_linear)" stroke-width="4" mask="url(#path-1-inside-1)"/>
<path d="M32 10C31.7348 10 31.4804 10.1054 31.2929 10.2929C31.1054 10.4804 31 10.7348 31 11V32C31.0003 32.1772 31.0477 32.3511 31.1373 32.504C31.2269 32.6569 31.3555 32.7832 31.51 32.87L40.51 37.87C40.6595 37.9547 40.8282 37.9995 41 38C41.2206 37.9993 41.4347 37.9258 41.6091 37.7907C41.7835 37.6557 41.9084 37.4668 41.9643 37.2535C42.0202 37.0401 42.004 36.8143 41.9182 36.6111C41.8324 36.4079 41.6819 36.2387 41.49 36.13L33 31.41V11C33 10.7348 32.8946 10.4804 32.7071 10.2929C32.5196 10.1054 32.2652 10 32 10Z" stroke="url(#paint2_linear)" stroke-width="4" mask="url(#path-1-inside-1)"/>
<path d="M32 4.5C31.7033 4.5 31.4133 4.58797 31.1666 4.7528C30.92 4.91762 30.7277 5.15189 30.6142 5.42597C30.5007 5.70006 30.4709 6.00166 30.5288 6.29264C30.5867 6.58361 30.7296 6.85088 30.9393 7.06066C31.1491 7.27044 31.4164 7.4133 31.7074 7.47118C31.9983 7.52906 32.2999 7.49935 32.574 7.38582C32.8481 7.27229 33.0824 7.08003 33.2472 6.83336C33.412 6.58668 33.5 6.29667 33.5 6C33.5 5.60218 33.342 5.22064 33.0607 4.93934C32.7794 4.65804 32.3978 4.5 32 4.5ZM32 6.5C31.9011 6.5 31.8044 6.47068 31.7222 6.41573C31.64 6.36079 31.5759 6.2827 31.5381 6.19134C31.5002 6.09998 31.4903 5.99945 31.5096 5.90245C31.5289 5.80546 31.5765 5.71637 31.6464 5.64645C31.7164 5.57652 31.8055 5.5289 31.9025 5.50961C31.9994 5.49031 32.1 5.50022 32.1913 5.53806C32.2827 5.5759 32.3608 5.63999 32.4157 5.72221C32.4707 5.80444 32.5 5.90111 32.5 6C32.5 6.13261 32.4473 6.25979 32.3536 6.35355C32.2598 6.44732 32.1326 6.5 32 6.5Z" stroke="url(#paint3_linear)" stroke-width="4" mask="url(#path-1-inside-1)"/>
<path d="M44.2498 10.7799C44.4752 10.92 44.7345 10.9961 44.9998 10.9999C45.2633 11.0001 45.5221 10.9308 45.7503 10.7992C45.9786 10.6675 46.1681 10.4781 46.2998 10.2499C46.4225 10.0362 46.4907 9.79548 46.4983 9.54912C46.5059 9.30276 46.4527 9.05833 46.3433 8.83744C46.234 8.61656 46.0719 8.42601 45.8714 8.28267C45.6709 8.13934 45.4381 8.04761 45.1937 8.01562C44.9493 7.98363 44.7008 8.01235 44.4702 8.09925C44.2395 8.18614 44.0339 8.32854 43.8713 8.51384C43.7088 8.69914 43.5944 8.92163 43.5384 9.16164C43.4823 9.40165 43.4862 9.65178 43.5498 9.88991C43.6013 10.0774 43.6898 10.2527 43.81 10.4055C43.9302 10.5584 44.0797 10.6856 44.2498 10.7799ZM44.5698 9.22991C44.6159 9.15806 44.6796 9.0992 44.7549 9.05894C44.8301 9.01867 44.9145 8.99835 44.9998 8.99991C45.0882 8.99818 45.1752 9.02252 45.2498 9.06991C45.307 9.10202 45.3572 9.14528 45.3974 9.19715C45.4375 9.24901 45.4669 9.30841 45.4837 9.37183C45.5005 9.43524 45.5043 9.50139 45.4951 9.56633C45.4858 9.63128 45.4636 9.69371 45.4298 9.74991C45.3629 9.86318 45.2547 9.9462 45.128 9.98161C45.0013 10.017 44.8658 10.0021 44.7498 9.93991C44.6921 9.90697 44.6419 9.86241 44.6023 9.80905C44.5627 9.75569 44.5346 9.69469 44.5198 9.62991C44.4972 9.56382 44.49 9.49345 44.4987 9.42414C44.5073 9.35484 44.5316 9.28841 44.5698 9.22991Z" stroke="url(#paint4_linear)" stroke-width="4" mask="url(#path-1-inside-1)"/>
<path d="M54.13 20.4499C54.2577 20.4812 54.3885 20.498 54.52 20.4999C54.783 20.4988 55.0413 20.4299 55.27 20.2999C55.4407 20.2014 55.5904 20.0702 55.7104 19.9139C55.8304 19.7576 55.9185 19.5791 55.9696 19.3888C56.0206 19.1984 56.0337 18.9998 56.008 18.8044C55.9824 18.609 55.9185 18.4206 55.82 18.2499C55.7215 18.0791 55.5903 17.9295 55.434 17.8095C55.2777 17.6894 55.0993 17.6014 54.9089 17.5503C54.7185 17.4992 54.52 17.4861 54.3246 17.5118C54.1291 17.5375 53.9407 17.6014 53.77 17.6999C53.5982 17.7973 53.4475 17.9279 53.3266 18.0841C53.2058 18.2403 53.1172 18.419 53.066 18.6098C53.0149 18.8005 53.0021 18.9995 53.0285 19.1953C53.055 19.391 53.12 19.5795 53.22 19.7499C53.3165 19.922 53.4469 20.0727 53.6033 20.1931C53.7597 20.3134 53.9389 20.4007 54.13 20.4499ZM54.27 18.5699C54.3441 18.5213 54.4314 18.4969 54.52 18.4999C54.6291 18.501 54.7349 18.5378 54.8211 18.6046C54.9074 18.6714 54.9694 18.7646 54.9977 18.87C55.0261 18.9754 55.0191 19.0872 54.978 19.1882C54.9369 19.2893 54.8638 19.3742 54.77 19.4299C54.714 19.465 54.651 19.4877 54.5854 19.4963C54.5199 19.5049 54.4532 19.4993 54.39 19.4799C54.3252 19.4651 54.2642 19.437 54.2108 19.3974C54.1575 19.3578 54.1129 19.3076 54.08 19.2499C54.0152 19.1344 53.9988 18.9981 54.0345 18.8706C54.0701 18.7431 54.1548 18.635 54.27 18.5699Z" stroke="url(#paint5_linear)" stroke-width="4" mask="url(#path-1-inside-1)"/>
<path d="M59.5 32C59.5 31.7033 59.412 31.4133 59.2472 31.1666C59.0824 30.92 58.8481 30.7277 58.574 30.6142C58.2999 30.5007 57.9983 30.4709 57.7074 30.5288C57.4164 30.5867 57.1491 30.7296 56.9393 30.9393C56.7296 31.1491 56.5867 31.4164 56.5288 31.7074C56.4709 31.9983 56.5006 32.2999 56.6142 32.574C56.7277 32.8481 56.92 33.0824 57.1666 33.2472C57.4133 33.412 57.7033 33.5 58 33.5C58.3978 33.5 58.7794 33.342 59.0607 33.0607C59.342 32.7794 59.5 32.3978 59.5 32ZM57.5 32C57.5 31.9011 57.5293 31.8044 57.5843 31.7222C57.6392 31.64 57.7173 31.5759 57.8087 31.5381C57.9 31.5002 58.0006 31.4903 58.0975 31.5096C58.1945 31.5289 58.2836 31.5765 58.3536 31.6464C58.4235 31.7164 58.4711 31.8055 58.4904 31.9025C58.5097 31.9994 58.4998 32.1 58.4619 32.1913C58.4241 32.2827 58.36 32.3608 58.2778 32.4157C58.1956 32.4707 58.0989 32.5 58 32.5C57.8674 32.5 57.7402 32.4473 57.6464 32.3536C57.5527 32.2598 57.5 32.1326 57.5 32Z" stroke="url(#paint6_linear)" stroke-width="4" mask="url(#path-1-inside-1)"/>
<defs>
<linearGradient id="paint0_linear" x1="31.9899" y1="0" x2="31.9899" y2="64.0026" gradientUnits="userSpaceOnUse">
<stop stop-color="#C3A758"/>
<stop offset="1" stop-color="#6B521E"/>
</linearGradient>
<linearGradient id="paint1_linear" x1="31.9899" y1="0" x2="31.9899" y2="64.0026" gradientUnits="userSpaceOnUse">
<stop stop-color="#C3A758"/>
<stop offset="1" stop-color="#6B521E"/>
</linearGradient>
<linearGradient id="paint2_linear" x1="31.9899" y1="0" x2="31.9899" y2="64.0026" gradientUnits="userSpaceOnUse">
<stop stop-color="#C3A758"/>
<stop offset="1" stop-color="#6B521E"/>
</linearGradient>
<linearGradient id="paint3_linear" x1="31.9899" y1="0" x2="31.9899" y2="64.0026" gradientUnits="userSpaceOnUse">
<stop stop-color="#C3A758"/>
<stop offset="1" stop-color="#6B521E"/>
</linearGradient>
<linearGradient id="paint4_linear" x1="31.9899" y1="0" x2="31.9899" y2="64.0026" gradientUnits="userSpaceOnUse">
<stop stop-color="#C3A758"/>
<stop offset="1" stop-color="#6B521E"/>
</linearGradient>
<linearGradient id="paint5_linear" x1="31.9899" y1="0" x2="31.9899" y2="64.0026" gradientUnits="userSpaceOnUse">
<stop stop-color="#C3A758"/>
<stop offset="1" stop-color="#6B521E"/>
</linearGradient>
<linearGradient id="paint6_linear" x1="31.9899" y1="0" x2="31.9899" y2="64.0026" gradientUnits="userSpaceOnUse">
<stop stop-color="#C3A758"/>
<stop offset="1" stop-color="#6B521E"/>
</linearGradient>
</defs>
</svg>
