<svg id="Слой_1" data-name="Слой 1" xmlns="http://www.w3.org/2000/svg" viewBox="0 0 129.66711 130.06593">
  <defs>
    <style>
      .cls-1 {
        opacity: 0.6;
      }

      .cls-2 {
        fill: #c4b998;
      }
    </style>
  </defs>
  <title>magmer</title>
  <g class="cls-1">
    <path class="cls-2" d="M15.5978,45.33491a.50234.50234,0,0,1-.2798-.6769.53493.53493,0,0,1,.9696.4463.49193.49193,0,0,1-.6898.2306Z" transform="translate(0.66352 -0.60588)"/>
    <path class="cls-2" d="M18.76779,38.58721c-.71559-.3527-1.57569-.7764-2.1926-1.1312l-.012.0224c.4895.4943.99609,1.0468,1.5445,1.68l1.9304,2.2221-.2704.4817-2.81981-.532c-.83339-.1595-1.5872-.3224-2.25629-.5147l-.008.0148c.6124.362,1.42749.8664,2.1498,1.3277l2.0628,1.3276-.3399.6059-4.7905-3.1319.4546-.8107,2.8812.509c.7284.1388,1.36959.2771,1.9566.4423l.0125-.0215c-.4332-.4055-.8819-.887-1.38771-1.4582l-1.9189-2.2248.4548-.8107,5.155,2.4821-.348.6207Z" transform="translate(0.66352 -0.60588)"/>
    <path class="cls-2" d="M21.3287,36.02431l1.10659,1.5292-.4436.609-3.4865-4.9042.51751-.7105,5.7482,1.7993-.4579.6292-1.8066-.5685Zm.6233-1.8333-1.65341-.519c-.37509-.1174-.69849-.249-1.01469-.3757l-.0098.0135c.2245.2666.451.5451.6678.8375l1.00969,1.4169Z" transform="translate(0.66352 -0.60588)"/>
    <path class="cls-2" d="M23.33869,27.32861l.46431.4084-1.50071,1.7021,3.82291,3.362-.4818.5465L21.356,29.57671Z" transform="translate(0.66352 -0.60588)"/>
    <path class="cls-2" d="M27.34389,28.84411l.82441,1.698-.5424.5234-2.5818-5.4372.6326-.61,5.3484,2.7699-.5605.5402-1.6802-.8734Zm.93241-1.6987-1.5382-.7982c-.3491-.1811-.6448-.3666-.934-.5461l-.0122.0114c.175.3018.3497.6156.5124.9412l.7486,1.5716Z" transform="translate(0.66352 -0.60588)"/>
    <path class="cls-2" d="M28.62139,22.82171a2.65735,2.65735,0,0,1,.90691-1.2589,1.44469,1.44469,0,0,1,2.168.0764,1.43025,1.43025,0,0,1-.0588,1.8096l.0106.0137a1.415,1.415,0,0,1,1.965.2784,1.76277,1.76277,0,0,1-.5834,2.5651,2.85027,2.85027,0,0,1-1.3904.6158l-.204-.5715a2.71288,2.71288,0,0,0,1.20971-.5069,1.11824,1.11824,0,0,0,.3525-1.6527c-.52821-.6728-1.3191-.3651-1.88591.0794l-.26369.2062-.3453-.4395.26379-.2062a1.19653,1.19653,0,0,0,.39311-1.6413.88753.88753,0,0,0-1.3523-.0814,2.291,2.291,0,0,0-.6927,1.0159Z" transform="translate(0.66352 -0.60588)"/>
    <path class="cls-2" d="M33.3125,18.91691l1.27619,2.0373c.4809.7677.8624,1.4081,1.22421,2.0799l.0186-.0011c-.0733-.6539-.103-1.3642-.1146-2.1553l-.0122-3.4579.6178-.3863,3.0289,4.8346-.58221.3646-1.28979-2.0593c-.4899-.7815-.8424-1.3604-1.1746-2.0004l-.0257.0062a17.4369,17.4369,0,0,1,.133,2.1834l.0076,3.3405-.6602.4129-3.0292-4.8345Z" transform="translate(0.66352 -0.60588)"/>
    <path class="cls-2" d="M39.0994,15.57091l1.0149,2.1621,2.47209-1.159-1.01479-2.1617.6674-.313,2.42549,5.1669-.66739.3131-1.1373-2.4227-2.47211,1.1586,1.137,2.4231-.6596.3093-2.4258-5.1674Z" transform="translate(0.66352 -0.60588)"/>
    <path class="cls-2" d="M52.401,14.19121c-.24421-.7584-.5374-1.6698-.71131-2.3597l-.0243.0065c-.015.6956-.06,1.4434-.13379,2.2772l-.25511,2.9318-.5346.1412-1.57809-2.3929c-.46491-.7085-.8718-1.3624-1.199-1.9766l-.01609.0042c.1657.6922.3701,1.6276.54029,2.4671l.48011,2.4036-.6719.1783-1.07951-5.6168.89871-.2385,1.6373,2.421c.4067.6194.75309,1.1754,1.04239,1.7121l.02431-.0064c-.00961-.5932.0246-1.2501.0833-2.0104l.2657-2.9252.8987-.2385,1.80049,5.426-.6885.1824Z" transform="translate(0.66352 -0.60588)"/>
    <path class="cls-2" d="M57.95279,13.09881l-2.17219.3121.2908,2.0358,2.4207-.3483.0872.6116-3.1418.4523-.8062-5.6466,3.01719-.4343.08751.612-2.29631.3298.25491,1.7846,2.1719-.3125Z" transform="translate(0.66352 -0.60588)"/>
    <path class="cls-2" d="M59.7328,9.948a8.3982,8.3982,0,0,1,1.3911-.1827,2.30186,2.30186,0,0,1,1.6051.3909,1.54,1.54,0,0,1,.5544,1.1664,1.691,1.691,0,0,1-.37271,1.2401,2.32523,2.32523,0,0,1-1.6912.7152,2.47866,2.47866,0,0,1-.58809-.0203l.1166,2.2831-.72741.038Zm.86809,2.7096a2.40932,2.40932,0,0,0,.605.028c.8786-.0458,1.3917-.5046,1.3516-1.2911-.0384-.7526-.5839-1.0883-1.3871-1.0468a3.047,3.047,0,0,0-.6829.095Z" transform="translate(0.66352 -0.60588)"/>
    <path class="cls-2" d="M69.8466,12.729c-.10671,1.9611-1.34261,2.9375-2.7805,2.8602a2.60144,2.60144,0,0,1-2.37641-3.0262,2.70171,2.70171,0,0,1,2.78-2.852A2.58477,2.58477,0,0,1,69.8466,12.729Zm-4.37821-.141c-.06629,1.2172.52661,2.3424,1.67211,2.4037,1.154.0617,1.86429-.9768,1.9348-2.2702.0616-1.1323-.45941-2.3474-1.6719-2.4124-1.2041-.064-1.867,1.0279-1.935,2.2789Z" transform="translate(0.66352 -0.60588)"/>
    <path class="cls-2" d="M76.0845,10.90161l-.9842,5.623-.71771-.1242.87741-5.0143-2.5822-.448-.8774,5.0138-.71731-.1247.98371-5.6229Z" transform="translate(0.66352 -0.60588)"/>
    <path class="cls-2" d="M78.3532,11.51811a8.34081,8.34081,0,0,1,1.37479.2789,2.30168,2.30168,0,0,1,1.3908.8915,1.54524,1.54524,0,0,1,.145,1.2834,1.69446,1.69446,0,0,1-.756,1.0521,2.329,2.329,0,0,1-1.83179.1277,2.4734,2.4734,0,0,1-.5494-.2106l-.6326,2.1978-.7005-.2004Zm-.0608,2.8452a2.42385,2.42385,0,0,0,.56329.223c.8452.2422,1.48011-.0255,1.69811-.7821.208-.7248-.198-1.2196-.97141-1.4413a3.02138,3.02138,0,0,0-.67669-.1315Z" transform="translate(0.66352 -0.60588)"/>
    <path class="cls-2" d="M84.3028,13.33171l-.912,2.2254c-.343.8388-.642,1.5221-.977,2.208l.012.014c.488-.4407,1.048-.8805,1.685-1.3523l2.802-2.0305.674.2747-2.164,5.2816-.635-.2588.921-2.249c.351-.8544.615-1.478.942-2.1217l-.02-.0175a17.51,17.51,0,0,1-1.697,1.384l-2.71,1.9586-.72-.2942,2.164-5.2811Z" transform="translate(0.66352 -0.60588)"/>
    <path class="cls-2" d="M86.54679,20.48381a3.61839,3.61839,0,0,0,.446-.3468,5.401,5.401,0,0,1,1.664-1.2749,1.15,1.15,0,0,1,.55-.0297l.012-.0224a1.40466,1.40466,0,0,1-.425-1.8289,1.46652,1.46652,0,0,1,1.01-.7724,2.54718,2.54718,0,0,1,1.63.382,7.1624,7.1624,0,0,1,1.128.7462l-2.69,4.9475-.64-.3466,1.181-2.1727-.47-.2547a1.0586,1.0586,0,0,0-.847-.1408,5.53929,5.53929,0,0,0-1.505,1.2076,3.459,3.459,0,0,1-.359.2771Zm5.128-3.0402a3.41522,3.41522,0,0,0-.571-.3858c-.632-.343-1.303-.3879-1.679.3039-.327.6026.012,1.2394.711,1.6178.213.1159.419.2268.548.2875Z" transform="translate(0.66352 -0.60588)"/>
    <path class="cls-2" d="M95.1008,19.58271l-1.423-.9575.35-.5202,3.465,2.3301-.35.5202-1.431-.9621-2.842,4.2185-.611-.4111Z" transform="translate(0.66352 -0.60588)"/>
    <path class="cls-2" d="M99.37879,21.89621l-1.543,1.8463c-.582.6949-1.073,1.2564-1.601,1.8088l.008.0174c.598-.2724,1.265-.5225,2.014-.7796l3.285-1.0876.559.4657-3.663,4.3812-.526-.439,1.559-1.8658c.592-.7081,1.034-1.2233,1.541-1.738l-.014-.0225a17.54554,17.54554,0,0,1-2.036.8056l-3.175,1.0471-.597-.498,3.662-4.3811Z" transform="translate(0.66352 -0.60588)"/>
    <path class="cls-2" d="M104.3198,26.29981l-1.745,1.6576c-.657.6247-1.209,1.1261-1.797,1.615l.006.0181c.626-.203,1.317-.3742,2.091-.5444l3.39-.7047.501.5266-4.14,3.935-.474-.4971,1.764-1.6751c.67-.6365,1.167-1.0978,1.729-1.5514l-.011-.0237a17.53858,17.53858,0,0,1-2.116.5677l-3.275.6774-.537-.5636,4.141-3.9345Zm1.501-.1569c-.167.2052-.3.4471-.029.7311.265.279.507.1764.733.0079l.387.4058a.93717.93717,0,0,1-1.408-.1631.919.919,0,0,1-.25-.3005.91921.91921,0,0,1-.038-.7629.91518.91518,0,0,1,.219-.3242Z" transform="translate(0.66352 -0.60588)"/>
    <path class="cls-2" d="M105.31279,32.58741a.50427.50427,0,0,1,.574-.0754.49509.49509,0,0,1,.157.1291.53478.53478,0,0,1-.127.8244.53457.53457,0,0,1-.604-.8781Z" transform="translate(0.66352 -0.60588)"/>
    <path class="cls-2" d="M22.8391,100.56391a.49833.49833,0,0,1,.1739-.106.51348.51348,0,0,1,.2019-.029.49927.49927,0,0,1,.19659.053.51128.51128,0,0,1,.15931.127.53588.53588,0,1,1-.7317-.045Z" transform="translate(0.66352 -0.60588)"/>
    <path class="cls-2" d="M28.1653,105.85991c.5323-.595,1.1715-1.309,1.6791-1.808l-.01781-.018c-.60839.339-1.27669.679-2.03379,1.038l-2.6601,1.264-.3922-.389,1.27079-2.572c.37751-.76.7365-1.442,1.102-2.035l-.0119-.012c-.5135.493-1.2183,1.143-1.8572,1.715l-1.83361,1.631-.49279-.49,4.3054-3.774.6595.655-1.26511,2.637c-.32939.664-.63509,1.245-.95209,1.766l.0177.017c.5071-.308,1.09159-.611,1.77729-.946l2.66051-1.252.659.654-3.7776,4.299-.50449-.5Z" transform="translate(0.66352 -0.60588)"/>
    <path class="cls-2" d="M30.4728,108.73991l-1.5634,1.064-.5957-.46,5.0123-3.346.6952.536-1.9734,5.691-.6155-.475.6227-1.788Zm1.8161.675.569-1.638c.1287-.371.27031-.691.40641-1.003l-.0136-.01c-.2732.217-.5586.436-.8577.644l-1.4483.969Z" transform="translate(0.66352 -0.60588)"/>
    <path class="cls-2" d="M39.15449,109.9859l-.3307.523-1.91859-1.208-2.7203,4.306-.61621-.389,3.05141-4.828Z" transform="translate(0.66352 -0.60588)"/>
    <path class="cls-2" d="M38.5093,114.08991l-1.3507,1.322-.6676-.349,4.34169-4.175.7794.406-.9362,5.951-.68989-.36.297-1.87Zm1.9066.344.271-1.711c.061-.389.1438-.728.2226-1.06l-.01531-.008c-.23069.263-.47279.528-.73049.786l-1.2543,1.208Z" transform="translate(0.66352 -0.60588)"/>
    <path class="cls-2" d="M44.227,112.93291a2.65812,2.65812,0,0,1,1.5439.151,1.41521,1.41521,0,0,1-.57619,2.771l-.0065.016a1.41135,1.41135,0,0,1,.7437,1.838,1.76743,1.76743,0,0,1-2.51341.785,2.8527,2.8527,0,0,1-1.22959-.892l.39279-.464a2.70771,2.70771,0,0,0,1.04491.791,1.12092,1.12092,0,0,0,1.6072-.526c.31759-.795-.3451-1.324-1.0139-1.591l-.3106-.124.2078-.519.3111.124a1.19833,1.19833,0,0,0,1.61789-.485.88473.88473,0,0,0-.2642-1.042.90063.90063,0,0,0-.34359-.168,2.30386,2.30386,0,0,0-1.2259-.088Z" transform="translate(0.66352 -0.60588)"/>
    <path class="cls-2" d="M49.45629,114.52391l-.65789,2.313c-.24781.872-.46781,1.584-.72441,2.304l.0138.012c.4358-.493.94341-.991,1.5233-1.532l2.5597-2.328.7007.198-1.56119,5.49-.66071-.187.6649-2.338c.2528-.888.44541-1.537.69911-2.213l-.02191-.016a17.48306,17.48306,0,0,1-1.5326,1.565l-2.47539,2.247-.7488-.212,1.5607-5.49Z" transform="translate(0.66352 -0.60588)"/>
    <path class="cls-2" d="M55.2183,115.9579l-.37561,2.358,2.69551.426.3756-2.358.72729.115-.8973,5.637-.7277-.115.4206-2.643-2.695-.426-.42109,2.643-.719-.113.89769-5.638Z" transform="translate(0.66352 -0.60588)"/>
    <path class="cls-2" d="M67.39479,119.8999c-.0616-.795-.13489-1.75-.1444-2.461H67.2255c-.1761.674-.39311,1.391-.6584,2.185l-.928,2.794-.55249.014-.9786-2.695c-.2876-.799-.5315-1.529-.7072-2.202h-.0167c.0008.711-.0178,1.669-.0469,2.526l-.09061,2.45-.69459.018.2535-5.717.92879-.023,1.03011,2.736c.2512.697.4593,1.319.6162,1.908l.0249-.001c.12829-.579.31379-1.211.54709-1.936l.9366-2.786.92931-.023.49139,5.698-.712.018Z" transform="translate(0.66352 -0.60588)"/>
    <path class="cls-2" d="M73.0071,119.02991l-2.1704.322.30259,2.034,2.4188-.359.09071.611-3.1397.467-.8387-5.643,3.01559-.448.09061.611-2.295.342.26531,1.783,2.1708-.323Z" transform="translate(0.66352 -0.60588)"/>
    <path class="cls-2" d="M74.1788,115.7769a8.41482,8.41482,0,0,1,1.3301-.444,2.2975,2.2975,0,0,1,1.64979.079,1.542,1.542,0,0,1,.76721,1.039,1.69269,1.69269,0,0,1-.1287,1.288,2.31771,2.31771,0,0,1-1.52191,1.024,2.43364,2.43364,0,0,1-.581.092l.55151,2.218-.7067.176Zm1.3702,2.495a2.43332,2.43332,0,0,0,.59969-.088c.8526-.212,1.26811-.761,1.07851-1.524-.182-.732-.7816-.958-1.5613-.764a3.004,3.004,0,0,0-.65171.223Z" transform="translate(0.66352 -0.60588)"/>
    <path class="cls-2" d="M84.30979,115.46291c.675,1.844-.076,3.228-1.429,3.723a2.604,2.604,0,0,1-3.3778-1.845,2.70042,2.70042,0,0,1,1.4318-3.716A2.58721,2.58721,0,0,1,84.30979,115.46291Zm-4.081,1.594c.419,1.145,1.408,1.945,2.485,1.55,1.086-.397,1.33-1.631.884-2.848-.39-1.064-1.348-1.976-2.488-1.558-1.1326.415-1.31191,1.68-.881,2.856Z" transform="translate(0.66352 -0.60588)"/>
    <path class="cls-2" d="M88.20179,110.43691l2.576,5.094-.65.329-2.297-4.543-2.339,1.181,2.297,4.543-.65.329-2.576-5.095Z" transform="translate(0.66352 -0.60588)"/>
    <path class="cls-2" d="M89.69979,109.63391a8.35235,8.35235,0,0,1,1.116-.849,2.309,2.309,0,0,1,1.588-.457,1.54838,1.54838,0,0,1,1.062.738,1.68768,1.68768,0,0,1,.293,1.261,2.32348,2.32348,0,0,1-1.112,1.459,2.43721,2.43721,0,0,1-.52.274l1.236,1.924-.613.393Zm2.101,1.921a2.36888,2.36888,0,0,0,.539-.277,1.20936,1.20936,0,0,0,.531-1.79c-.407-.634-1.048-.655-1.724-.22a2.97089,2.97089,0,0,0-.546.42Z" transform="translate(0.66352 -0.60588)"/>
    <path class="cls-2" d="M94.26879,106.45891l1.507,1.873c.568.705,1.022,1.297,1.46,1.921l.019-.004c-.15-.639-.263-1.341-.368-2.126l-.419-3.432.568-.456,3.576,4.445-.535.43-1.523-1.893c-.578-.719-.996-1.252-1.401-1.849l-.025.009a17.47215,17.47215,0,0,1,.389,2.153l.4,3.316-.607.488-3.576-4.445Z" transform="translate(0.66352 -0.60588)"/>
    <path class="cls-2" d="M101.9448,107.48791a3.6823,3.6823,0,0,0-.205-.525,5.38792,5.38792,0,0,1-.749-1.957,1.14479,1.14479,0,0,1,.129-.535l-.018-.018a1.40867,1.40867,0,0,1-1.877-.114,1.46124,1.46124,0,0,1-.453-1.187,2.54163,2.54163,0,0,1,.833-1.452,7.06719,7.06719,0,0,1,1.038-.868l3.981,3.985-.516.514-1.748-1.75-.379.378a1.06022,1.06022,0,0,0-.27.346,1.04683,1.04683,0,0,0-.107.425,5.52408,5.52408,0,0,0,.729,1.784,3.40415,3.40415,0,0,1,.163.424Zm-1.453-5.776a3.32714,3.32714,0,0,0-.533.436c-.51.509-.745,1.138-.188,1.695.485.485,1.193.341,1.755-.22.172-.172.338-.337.433-.443Z" transform="translate(0.66352 -0.60588)"/>
    <path class="cls-2" d="M102.8988,99.08391l-1.093,1.322-.484-.398,2.663-3.218.483.399-1.099,1.328,3.918,3.236-.469.567Z" transform="translate(0.66352 -0.60588)"/>
    <path class="cls-2" d="M104.9838,95.37991l2.009,1.325c.757.499,1.37.923,1.979,1.385l.016-.009c-.338-.564-.661-1.198-1-1.913l-1.449-3.142.402-.608,4.767,3.145-.378.573-2.03-1.339c-.771-.509-1.333-.889-1.901-1.334l-.022.016a17.26738,17.26738,0,0,1,1.029,1.932l1.396,3.036-.429.65-4.768-3.144Z" transform="translate(0.66352 -0.60588)"/>
    <path class="cls-2" d="M107.42279,89.00191c.25.086.523.128.697-.225.171-.345-.008-.536-.244-.69l.25-.503a.93727.93727,0,0,1,.487,1.012,3.48427,3.48427,0,0,1-.355.704.92311.92311,0,0,1-1.084.205Zm.661,1.355,2.155,1.068c.812.402,1.473.748,2.134,1.132l.014-.012c-.404-.518-.802-1.107-1.227-1.776l-1.823-2.939.323-.653,5.116,2.534-.305.615-2.178-1.079c-.828-.409-1.431-.718-2.05-1.09l-.019.019a17.56016,17.56016,0,0,1,1.258,1.791l1.758,2.842-.346.697-5.115-2.534Z" transform="translate(0.66352 -0.60588)"/>
    <path class="cls-2" d="M113.42979,87.08491a.5054.5054,0,0,1-.178-.1.50263.50263,0,0,1-.171-.361.50892.50892,0,0,1,.035-.2.53433.53433,0,0,1,.474-.37.53915.53915,0,0,1,.519.304.54651.54651,0,0,1,.045.311.53691.53691,0,0,1-.411.44A.53162.53162,0,0,1,113.42979,87.08491Z" transform="translate(0.66352 -0.60588)"/>
    <path class="cls-2" d="M101.1128,39.86541l-1.44.2107a43.49317,43.49317,0,0,0-76.061,10.9725l-1.4347.2072a44.71736,44.71736,0,0,1,78.9357-11.3904Z" transform="translate(0.66352 -0.60588)"/>
    <path class="cls-2" d="M103.48079,39.52781l-1.43.2028a45.582,45.582,0,0,0-80.8113,11.66l-1.4513.2133a46.88015,46.88015,0,0,1,83.69259-12.0761Z" transform="translate(0.66352 -0.60588)"/>
    <path class="cls-2" d="M93.8088,37.98521a40.53618,40.53618,0,0,0-65.8832,9.6234Z" transform="translate(0.66352 -0.60588)"/>
    <path class="cls-2" d="M34.5716,93.26491a40.53627,40.53627,0,0,0,65.8822-9.624Z" transform="translate(0.66352 -0.60588)"/>
    <path class="cls-2" d="M106.5378,79.96081a44.72772,44.72772,0,0,1-78.9564,11.3911l1.4457-.21a43.44037,43.44037,0,0,0,76.05069-10.974Z" transform="translate(0.66352 -0.60588)"/>
    <path class="cls-2" d="M108.89579,79.61661A46.873,46.873,0,0,1,25.2127,91.69491l1.43009-.208a45.61217,45.61217,0,0,0,28.7706,18.852l.005.001a45.625,45.625,0,0,0,52.0424-30.5166Z" transform="translate(0.66352 -0.60588)"/>
    <path class="cls-2" d="M128.2698,76.99891l.035-.2068c.075-.4282.132-.8584.198-1.2881l-1.398.2047-.001.0024-1.317.1901-1.292.1883v.0015l-15.212,2.2224-1.41.2069-.912.13-.001.0045-1.439.2062-77.2017,11.2769-1.42519.208-.9224.133-1.41.207-15.2224,2.225-1.2927.189.0005.001-1.3216.189-1.1438.17h.0003l-.2524.037c.1518.322.2954.648.4527.967l.0452.099a.76607.76607,0,0,0,.0513.094,65.34748,65.34748,0,0,0,45.67579,34.815l.00511.001a65.33684,65.33684,0,0,0,64.6993-24.899A64.28563,64.28563,0,0,0,128.2698,76.99891ZM25.2144,91.69391l1.4301-.207.9378-.135,1.4457-.21,76.0508-10.9743,1.46-.207.001-.0045.922-.1331,1.435-.2068,15.355-2.2144A61.25011,61.25011,0,0,1,9.8447,93.91091Zm101.6604-14.6443A63.76516,63.76516,0,0,1,7.2249,94.31891l-.0146-.028,1.3383-.196a62.52479,62.52479,0,0,0,117.00419-16.881l1.327-.1882Z" transform="translate(0.66352 -0.60588)"/>
    <path class="cls-2" d="M2.193,57.87521l1.2663-.185,14.9451-2.1851,1.38909-.2008.90241-.132,1.37459-.2035,79.3803-11.5966,1.389-.2007.902-.132,1.374-.1991,14.965-2.1859,1.272-.189,1.308-.1919,1.127-.1627c-.149-.3525-.293-.709-.454-1.0589l-1.143.1693-1.317.1901-1.277.1876-15.083,2.2031-1.385.2017-.913.135-1.404.2028-78.427,11.4597-1.3888.2007-.90731.131-1.41.2069L3.6263,56.53871l-1.277.1877-1.3172.19-1.3958.2039c-.0503.3815-.0863.7648-.1296,1.1465l1.3737-.2006Z" transform="translate(0.66352 -0.60588)"/>
    <path class="cls-2" d="M128.34179,56.38811a65.20025,65.20025,0,0,0-3.499-13.6417l-1.107.1609-1.303.1929-1.25.1784-14.725,2.1535-1.339.1957-.886.1298-1.354.1979L21.438,57.85051l-1.34271.1947-.87659.1272-1.364.2005L3.1555,60.52211l-1.2453.1789-1.3028.1928-1.1121.1606a65.29336,65.29336,0,0,0,4.0045,27.4945l1.1072-.161,1.3077-.192,1.2451-.18,14.72509-2.153,1.34321-.195.8869-.13,1.3488-.198,81.425-11.8932,1.369-.2001.867-.1285,1.348-.1939,14.709-2.1519,1.25-.1779,1.303-.1933,1.108-.1615A65.2855,65.2855,0,0,0,128.34179,56.38811ZM25.666,80.93091l-.7337-5.3222-.8649-9.2415-3.25991,15.2357-2.75709.382-7.245-13.7686,1.6661,9.117.7337,5.3216-4.0152.556L6.5059,63.74221l5.2467-.7262,6.9526,13.4273,3.032-14.8091,5.2734-.7298,2.6841,19.4687Zm20.08129-2.7798-1.90469-3.8258-7.0367.9739-.78571,4.1981-4.27129.5912,4.5697-20.4726,3.7205-.5149L50.0186,77.56Zm17.9806-3.1914a12.73179,12.73179,0,0,1-4.17769,1.2811,8.62553,8.62553,0,0,1-4.4718-.4686,7.31975,7.31975,0,0,1-3.29651-2.7266,11.12215,11.12215,0,0,1-1.6911-4.6598l-.17759-1.2883a11.77716,11.77716,0,0,1,.27449-5.0379,7.15714,7.15714,0,0,1,2.3238-3.5575,8.03827,8.03827,0,0,1,4.0811-1.6921,7.97668,7.97668,0,0,1,5.498.8836,6.90279,6.90279,0,0,1,2.89791,4.36l-3.8041.5265a3.79117,3.79117,0,0,0-1.48731-2.2211,3.69108,3.69108,0,0,0-2.553-.416,3.50105,3.50105,0,0,0-2.82871,1.9167,7.93858,7.93858,0,0,0-.44169,4.5967l.16679,1.2103a7.55357,7.55357,0,0,0,1.75421,4.3459,3.91671,3.91671,0,0,0,3.5316,1.0629,4.38179,4.38179,0,0,0,3.0103-1.3714l-.45031-3.2665-3.55629.4922-.3965-2.876,7.46409-1.033,1.04241,7.561A6.89965,6.89965,0,0,1,63.72789,74.95971Zm22.99191-2.4791-.734-5.3218-.865-9.2416-3.26,15.2359-2.7567.3815-7.2449-13.7683,1.66609,9.1171.73371,5.3218-4.01531.5557-2.684-19.4687,5.24659-.7262,6.95261,13.4273,3.0319-14.8091,5.274-.7298,2.684,19.4687Zm7.701-1.0658L91.7368,51.946l13.037-1.8043.448,3.2492-9.021,1.2486.639,4.6397,7.71-1.0671.434,3.1426-7.711,1.0671.719,5.2148,9.048-1.2522.444,3.2225Zm26.406-3.6546-4.637-6.6241-3.199.4426.983,7.1299-4.013.5554-2.684-19.4687,7.237-1.0015a8.25639,8.25639,0,0,1,5.538.8004,5.35217,5.35217,0,0,1,2.476,4.0866,6.048,6.048,0,0,1-.412,3.4501,5.97874,5.97874,0,0,1-2.32,2.474l5.314,7.3715.025.1874Z" transform="translate(0.66352 -0.60588)"/>
    <path class="cls-2" d="M118.2238,53.417a2.94205,2.94205,0,0,0-.756-.9171,3.27039,3.27039,0,0,0-2.507-.4557l-3.223.4462.805,5.8423,3.237-.448a3.37241,3.37241,0,0,0,2.238-1.0869,2.7912,2.7912,0,0,0,.538-2.2402A2.94491,2.94491,0,0,0,118.2238,53.417Z" transform="translate(0.66352 -0.60588)"/>
    <path class="cls-2" d="M37.4433,71.90291l4.8717-.6741-3.4574-6.9487Z" transform="translate(0.66352 -0.60588)"/>
    <path class="cls-2" d="M7.4871,91.92191l.0006.001,1.0061-.146.2693-.038,15.0885-2.207,1.3891-.2.9131-.135,1.3996-.204,78.36939-11.446.001-.0053,1.42-.2046.897-.1329,1.4-.2038,15.063-2.2014,1.286-.1862,1.313-.191,1.148-.1683c.048-.3937.087-.7941.134-1.1878l-1.127.1623-.001.0049-1.307.1875-1.272.1884-14.955,2.1829-1.379.2031-.892.1294-1.395.2042L26.8981,87.91891l-1.39.206-.90211.132-1.3783.198L8.2619,90.64091l-.0003-.001-1.2662.185.0003.001-1.3133.196-.0019-.005-1.3745.201c.1566.368.3085.737.4717,1.103l.6587-.097.7371-.106Z" transform="translate(0.66352 -0.60588)"/>
    <path class="cls-2" d="M.0814,55.79991l1.1427-.1643,1.324-.1989,1.2862-.1858,15.19049-2.2167,1.43121-.2126.9227-.1327,1.4098-.2068,77.2683-11.2883,1.42-.2099.005.0009.918-.1336,1.409-.202,15.222-2.2254,1.286-.1858,1.324-.1941,1.143-.1692.253-.0372c-.16-.3403-.311-.6844-.478-1.0222l-.046-.0933a.82709.82709,0,0,0-.051-.0946A65.1614,65.1614,0,0,0,.0717,54.28071l-.0366.2112c-.0776.4468-.1381.8956-.206,1.3432l.2526-.0366Zm103.0434-16.2051-1.429.2027-.933.1358-.005-.001-1.441.2107L23.2567,51.11551l-1.4349.2073-.93781.1348-1.45129.2133L4.0888,53.88271a61.25332,61.25332,0,0,1,114.407-16.5094ZM1.4651,54.23441a63.76548,63.76548,0,0,1,119.65069-17.2685l.014.0277-1.333.1966A62.52687,62.52687,0,0,0,2.7927,54.06661l-1.3324.1923Z" transform="translate(0.66352 -0.60588)"/>
  </g>
</svg>
