<svg width="169" height="169" viewBox="0 0 169 169" fill="none" xmlns="http://www.w3.org/2000/svg">
<path d="M35.596 64.499C35.5318 64.4747 35.4733 64.4375 35.424 64.3897C35.3747 64.3419 35.3358 64.2845 35.3096 64.2211C35.2834 64.1577 35.2704 64.0896 35.2716 64.0209C35.2727 63.9523 35.2879 63.8846 35.3162 63.8221C35.3814 63.7033 35.4892 63.6136 35.618 63.5711C35.7467 63.5286 35.8867 63.5364 36.0098 63.5931C36.1329 63.6497 36.2298 63.751 36.2811 63.8763C36.3323 64.0017 36.334 64.1418 36.2858 64.2684C36.2582 64.331 36.2177 64.3871 36.1671 64.4332C36.1165 64.4793 36.0568 64.5143 35.9918 64.536C35.9269 64.5577 35.8581 64.5657 35.79 64.5593C35.7218 64.5529 35.6557 64.5324 35.596 64.499Z" fill="#C4B998"/>
<path d="M38.766 57.7513C38.0504 57.3986 37.1903 56.9749 36.5734 56.6201L36.5614 56.6425C37.0509 57.1368 37.5575 57.6893 38.1059 58.3225L40.0363 60.5446L39.7659 61.0263L36.9461 60.4943C36.1127 60.3348 35.3589 60.1719 34.6898 59.9796L34.6818 59.9944C35.2942 60.3564 36.1093 60.8608 36.8316 61.3221L38.8944 62.6497L38.5545 63.2556L33.764 60.1237L34.2186 59.313L37.0998 59.822C37.8282 59.9608 38.4694 60.0991 39.0564 60.2643L39.0689 60.2428C38.6357 59.8373 38.187 59.3558 37.6812 58.7846L35.7623 56.5598L36.2171 55.7491L41.3721 58.2312L41.0241 58.8519L38.766 57.7513Z" fill="#C4B998"/>
<path d="M41.3269 55.1884L42.4335 56.7176L41.9899 57.3266L38.5034 52.4224L39.0209 51.7119L44.7691 53.5112L44.3112 54.1404L42.5046 53.5719L41.3269 55.1884ZM41.9502 53.3551L40.2968 52.8361C39.9217 52.7187 39.5983 52.5871 39.2821 52.4604L39.2723 52.4739C39.4968 52.7405 39.7233 53.019 39.9401 53.3114L40.9498 54.7283L41.9502 53.3551Z" fill="#C4B998"/>
<path d="M43.3369 46.4927L43.8012 46.9011L42.3005 48.6032L46.1234 51.9652L45.6416 52.5117L41.3542 48.7408L43.3369 46.4927Z" fill="#C4B998"/>
<path d="M47.3421 48.0082L48.1665 49.7062L47.6241 50.2296L45.0423 44.7924L45.6749 44.1824L51.0233 46.9523L50.4628 47.4925L48.7826 46.6191L47.3421 48.0082ZM48.2745 46.3095L46.7363 45.5113C46.3872 45.3302 46.0915 45.1447 45.8023 44.9652L45.7901 44.9766C45.9651 45.2784 46.1398 45.5922 46.3025 45.9178L47.0511 47.4894L48.2745 46.3095Z" fill="#C4B998"/>
<path d="M48.6196 41.9858C48.7898 41.4855 49.1056 41.0471 49.5265 40.7269C50.2978 40.1229 51.1509 40.111 51.6945 40.8033C51.8949 41.0653 51.9986 41.3886 51.9879 41.7183C51.9772 42.0481 51.8528 42.3641 51.6357 42.6129L51.6463 42.6266C51.9451 42.406 52.3186 42.3115 52.6862 42.3636C53.0539 42.4157 53.3861 42.6102 53.6113 42.905C54.3436 43.8371 53.839 44.835 53.0279 45.4701C52.6288 45.7975 52.1482 46.0103 51.6375 46.0859L51.4335 45.5144C51.8721 45.4469 52.2875 45.2729 52.6432 45.0075C53.3027 44.4911 53.383 43.8478 52.9957 43.3548C52.4675 42.682 51.6766 42.9897 51.1098 43.4342L50.8461 43.6404L50.5008 43.2009L50.7646 42.9947C51.0338 42.8283 51.2263 42.5623 51.2999 42.2548C51.3736 41.9472 51.3224 41.6232 51.1577 41.3534C51.0806 41.2501 50.9818 41.165 50.8684 41.1038C50.7549 41.0426 50.6294 41.0069 50.5007 40.9992C50.372 40.9914 50.2431 41.0118 50.123 41.0589C50.0029 41.106 49.8945 41.1787 49.8054 41.272C49.4862 41.5413 49.2466 41.8926 49.1127 42.2879L48.6196 41.9858Z" fill="#C4B998"/>
<path d="M53.3107 38.081L54.5869 40.1183C55.0678 40.886 55.4493 41.5264 55.8111 42.1982L55.8297 42.1971C55.7564 41.5432 55.7267 40.8329 55.7151 40.0418L55.7029 36.5839L56.3207 36.1976L59.3496 41.0322L58.7674 41.3968L57.4776 39.3375C56.9877 38.556 56.6352 37.9771 56.303 37.3371L56.2773 37.3433C56.3673 38.0676 56.4117 38.7968 56.4103 39.5267L56.4179 42.8672L55.7577 43.2801L52.7285 38.4456L53.3107 38.081Z" fill="#C4B998"/>
<path d="M59.0976 34.735L60.1125 36.8971L62.5846 35.7381L61.5698 33.5764L62.2372 33.2634L64.6627 38.4303L63.9953 38.7434L62.858 36.3207L60.3859 37.4793L61.5229 39.9024L60.8633 40.2117L58.4375 35.0443L59.0976 34.735Z" fill="#C4B998"/>
<path d="M72.3992 33.3553C72.155 32.5969 71.8618 31.6855 71.6879 30.9956L71.6636 31.0021C71.6486 31.6977 71.6036 32.4455 71.5298 33.2793L71.2747 36.2111L70.7401 36.3523L69.162 33.9594C68.6971 33.2509 68.2902 32.597 67.963 31.9828L67.9469 31.987C68.1126 32.6792 68.317 33.6146 68.4872 34.4541L68.9673 36.8577L68.2954 37.036L67.2159 31.4192L68.1146 31.1807L69.7519 33.6017C70.1586 34.2211 70.505 34.7771 70.7943 35.3138L70.8186 35.3074C70.809 34.7142 70.8432 34.0573 70.9019 33.297L71.1676 30.3718L72.0663 30.1333L73.8668 35.5593L73.1783 35.7417L72.3992 33.3553Z" fill="#C4B998"/>
<path d="M77.951 32.2629L75.7788 32.575L76.0696 34.6108L78.4903 34.2625L78.5775 34.8741L75.4357 35.3264L74.6295 29.6798L77.6467 29.2455L77.7342 29.8575L75.4379 30.1873L75.6928 31.9719L77.8647 31.6594L77.951 32.2629Z" fill="#C4B998"/>
<path d="M79.731 29.1121C80.1888 29.0125 80.6541 28.9514 81.1221 28.9294C81.6873 28.8566 82.2592 28.996 82.7272 29.3203C82.8986 29.4631 83.0369 29.6413 83.1326 29.8426C83.2283 30.044 83.2792 30.2637 83.2816 30.4867C83.3041 30.7077 83.2827 30.9309 83.2187 31.1437C83.1548 31.3565 83.0495 31.5546 82.9089 31.7268C82.6903 31.9545 82.4276 32.1354 82.1369 32.2584C81.8461 32.3813 81.5333 32.4438 81.2177 32.442C81.0215 32.4586 80.8241 32.4518 80.6296 32.4217L80.7462 34.7048L80.0188 34.7428L79.731 29.1121ZM80.5991 31.8217C80.7988 31.8564 81.0021 31.8659 81.2041 31.8497C82.0827 31.8039 82.5958 31.3451 82.5557 30.5586C82.5173 29.806 81.9718 29.4703 81.1686 29.5118C80.9382 29.5175 80.7091 29.5494 80.4857 29.6068L80.5991 31.8217Z" fill="#C4B998"/>
<path d="M89.8448 31.8931C89.7381 33.8542 88.5022 34.8306 87.0643 34.7533C85.576 34.6742 84.594 33.4514 84.6879 31.7271C84.7861 29.9184 85.9628 28.7946 87.4679 28.8751C89.0062 28.9573 89.9366 30.2026 89.8448 31.8931ZM85.4666 31.7521C85.4003 32.9693 85.9932 34.0945 87.1387 34.1558C88.2927 34.2175 89.003 33.179 89.0735 31.8856C89.1351 30.7533 88.6141 29.5382 87.4016 29.4732C86.1975 29.4092 85.5346 30.5011 85.4666 31.7521L85.4666 31.7521Z" fill="#C4B998"/>
<path d="M96.0827 30.0657L95.0985 35.6887L94.3808 35.5645L95.2582 30.5502L92.676 30.1022L91.7986 35.116L91.0813 34.9913L92.065 29.3684L96.0827 30.0657Z" fill="#C4B998"/>
<path d="M98.3514 30.6822C98.8167 30.7364 99.2766 30.8297 99.7262 30.9611C100.284 31.076 100.78 31.3936 101.117 31.8526C101.233 32.0433 101.305 32.2567 101.33 32.4783C101.355 32.6998 101.332 32.9242 101.262 33.136C101.159 33.5728 100.888 33.9512 100.506 34.1881C100.225 34.3324 99.9181 34.4181 99.6032 34.4401C99.2882 34.462 98.9722 34.4198 98.6742 34.3158C98.4833 34.2677 98.2989 34.197 98.1248 34.1052L97.4922 36.303L96.7917 36.1026L98.3514 30.6822ZM98.2906 33.5274C98.4683 33.625 98.6575 33.6999 98.8539 33.7504C99.6991 33.9926 100.334 33.7249 100.552 32.9683C100.76 32.2435 100.354 31.7487 99.5806 31.527C99.3609 31.4575 99.1338 31.4134 98.9039 31.3955L98.2906 33.5274Z" fill="#C4B998"/>
<path d="M104.301 32.4958L103.389 34.7212C103.046 35.56 102.747 36.2433 102.412 36.9292L102.424 36.9432C102.912 36.5025 103.472 36.0627 104.109 35.5909L106.911 33.5604L107.585 33.8351L105.421 39.1167L104.786 38.8579L105.707 36.6089C106.058 35.7545 106.322 35.1309 106.649 34.4872L106.629 34.4697C106.093 34.9659 105.526 35.4281 104.932 35.8537L102.222 37.8123L101.502 37.5181L103.666 32.237L104.301 32.4958Z" fill="#C4B998"/>
<path d="M106.545 39.6479C106.703 39.5441 106.851 39.4282 106.991 39.3011C107.516 38.8439 108.028 38.2169 108.655 38.0262C108.833 37.9719 109.022 37.9617 109.205 37.9965L109.217 37.9741C108.933 37.7751 108.733 37.4785 108.654 37.141C108.576 36.8035 108.625 36.4489 108.792 36.1452C108.892 35.9489 109.034 35.7775 109.209 35.6438C109.384 35.5101 109.587 35.4174 109.802 35.3728C110.373 35.3129 110.948 35.4476 111.432 35.7548C111.831 35.9674 112.208 36.2172 112.56 36.501L109.87 41.4485L109.23 41.1019L110.411 38.9292L109.941 38.6745C109.817 38.5931 109.678 38.5385 109.532 38.5143C109.387 38.49 109.237 38.4966 109.094 38.5337C108.565 38.6998 108.025 39.3605 107.589 39.7413C107.476 39.8415 107.355 39.934 107.23 40.0184L106.545 39.6479ZM111.673 36.6077C111.496 36.4602 111.305 36.3309 111.102 36.2219C110.47 35.8789 109.799 35.834 109.423 36.5258C109.096 37.1284 109.435 37.7652 110.134 38.1436C110.347 38.2595 110.553 38.3704 110.682 38.4311L111.673 36.6077Z" fill="#C4B998"/>
<path d="M115.099 38.7468L113.676 37.7893L114.026 37.2691L117.491 39.5992L117.141 40.1194L115.71 39.1573L112.868 43.3758L112.257 42.9647L115.099 38.7468Z" fill="#C4B998"/>
<path d="M119.377 41.0603L117.834 42.9066C117.252 43.6015 116.761 44.163 116.233 44.7154L116.241 44.7328C116.839 44.4604 117.506 44.2103 118.255 43.9532L121.54 42.8656L122.099 43.3313L118.436 47.7125L117.91 47.2735L119.469 45.4077C120.061 44.6996 120.503 44.1844 121.01 43.6697L120.996 43.6472C120.335 43.9578 119.655 44.2268 118.96 44.4528L115.785 45.4999L115.188 45.0019L118.85 40.6208L119.377 41.0603Z" fill="#C4B998"/>
<path d="M124.318 45.4639L122.573 47.1215C121.916 47.7462 121.364 48.2476 120.776 48.7365L120.782 48.7546C121.408 48.5516 122.099 48.3804 122.873 48.2102L126.263 47.5055L126.764 48.0321L122.624 51.9671L122.15 51.47L123.914 49.7949C124.584 49.1584 125.081 48.6971 125.643 48.2435L125.632 48.2198C124.939 48.4529 124.233 48.6425 123.516 48.7875L120.241 49.4649L119.704 48.9013L123.845 44.9668L124.318 45.4639ZM125.819 45.307C125.652 45.5122 125.519 45.7541 125.79 46.0381C126.055 46.3171 126.297 46.2145 126.523 46.046L126.91 46.4518C126.811 46.5426 126.693 46.611 126.565 46.6524C126.437 46.6938 126.302 46.7072 126.168 46.6918C126.035 46.6763 125.906 46.6323 125.791 46.5627C125.676 46.4932 125.578 46.3997 125.502 46.2887C125.398 46.2077 125.313 46.1052 125.252 45.9882C125.191 45.8713 125.156 45.7426 125.15 45.611C125.143 45.4794 125.165 45.3478 125.214 45.2253C125.263 45.1029 125.337 44.9923 125.433 44.9011L125.819 45.307Z" fill="#C4B998"/>
<path d="M125.311 51.7515C125.362 51.7051 125.421 51.6695 125.486 51.6469C125.551 51.6243 125.62 51.6153 125.689 51.6203C125.757 51.6253 125.824 51.6443 125.885 51.6761C125.946 51.7079 125.999 51.7518 126.042 51.8052C126.115 51.8841 126.162 51.9829 126.177 52.0889C126.193 52.1949 126.176 52.3031 126.129 52.3995C126.083 52.4959 126.008 52.5761 125.915 52.6296C125.822 52.6831 125.715 52.7076 125.608 52.6997C125.502 52.6919 125.399 52.6521 125.315 52.5856C125.231 52.5191 125.169 52.4289 125.137 52.3267C125.105 52.2245 125.105 52.1151 125.136 52.0125C125.167 51.9099 125.228 51.819 125.311 51.7515Z" fill="#C4B998"/>
<path d="M42.8373 119.728C42.8874 119.681 42.9466 119.645 43.0112 119.622C43.0759 119.599 43.1445 119.589 43.2131 119.593C43.2816 119.597 43.3485 119.615 43.4097 119.646C43.471 119.677 43.5252 119.721 43.569 119.773C43.6425 119.852 43.6908 119.95 43.7076 120.056C43.7244 120.162 43.7089 120.27 43.6633 120.367C43.6176 120.464 43.5438 120.545 43.4514 120.6C43.3591 120.655 43.2525 120.68 43.1454 120.674C43.0383 120.667 42.9356 120.629 42.8508 120.563C42.766 120.497 42.7029 120.408 42.6697 120.306C42.6365 120.204 42.6347 120.094 42.6646 119.991C42.6945 119.888 42.7547 119.797 42.8373 119.728Z" fill="#C4B998"/>
<path d="M48.1635 125.024C48.6958 124.429 49.335 123.715 49.8426 123.216L49.8248 123.198C49.2164 123.537 48.5481 123.877 47.791 124.236L45.1309 125.5L44.7387 125.111L46.0095 122.539C46.387 121.779 46.746 121.097 47.1115 120.504L47.0996 120.492C46.5861 120.985 45.8813 121.635 45.2424 122.207L43.4088 123.838L42.916 123.348L47.2214 119.574L47.8809 120.229L46.6158 122.866C46.2864 123.53 45.9807 124.111 45.6637 124.632L45.6814 124.649C46.1885 124.341 46.773 124.038 47.4587 123.703L50.1192 122.451L50.7782 123.105L47.0006 127.404L46.4961 126.904L48.1635 125.024Z" fill="#C4B998"/>
<path d="M50.471 127.904L48.9076 128.968L48.3119 128.508L53.3242 125.162L54.0194 125.698L52.046 131.389L51.4305 130.914L52.0532 129.126L50.471 127.904ZM52.2871 128.579L52.8561 126.941C52.9848 126.57 53.1264 126.25 53.2625 125.938L53.2489 125.928C52.9757 126.145 52.6903 126.364 52.3912 126.572L50.9429 127.541L52.2871 128.579Z" fill="#C4B998"/>
<path d="M59.1527 129.15L58.822 129.673L56.9034 128.465L54.1831 132.771L53.5669 132.382L56.6183 127.554L59.1527 129.15Z" fill="#C4B998"/>
<path d="M58.5075 133.254L57.1568 134.576L56.4892 134.227L60.8309 130.052L61.6103 130.458L60.6741 136.409L59.9842 136.049L60.2812 134.179L58.5075 133.254ZM60.4141 133.598L60.6851 131.887C60.7461 131.498 60.8289 131.159 60.9077 130.827L60.8924 130.819C60.6617 131.082 60.4196 131.347 60.1619 131.605L58.9076 132.813L60.4141 133.598Z" fill="#C4B998"/>
<path d="M64.2252 132.097C64.7435 131.993 65.281 132.045 65.7691 132.248C66.6782 132.61 67.1166 133.342 66.7895 134.16C66.663 134.465 66.435 134.717 66.1441 134.873C65.8531 135.03 65.5171 135.081 65.1929 135.019L65.1864 135.035C65.5272 135.182 65.7961 135.457 65.9352 135.801C66.0744 136.145 66.0725 136.53 65.9301 136.873C65.4897 137.974 64.373 138.039 63.4167 137.658C62.9336 137.477 62.5086 137.169 62.1871 136.766L62.5799 136.302C62.8581 136.647 63.2169 136.919 63.6248 137.093C64.4019 137.403 64.9994 137.149 65.232 136.567C65.5496 135.772 64.8869 135.243 64.2181 134.976L63.9075 134.852L64.1153 134.333L64.4264 134.457C64.7054 134.606 65.0321 134.639 65.3353 134.548C65.6384 134.457 65.8933 134.25 66.0443 133.972C66.0949 133.853 66.1191 133.725 66.1151 133.596C66.1112 133.468 66.0791 133.341 66.0213 133.226C65.9634 133.111 65.8811 133.01 65.7801 132.93C65.6792 132.85 65.5619 132.793 65.4365 132.762C65.0436 132.622 64.6197 132.592 64.2106 132.674L64.2252 132.097Z" fill="#C4B998"/>
<path d="M69.4545 133.688L68.7966 136.001C68.5488 136.873 68.3288 137.585 68.0722 138.305L68.086 138.317C68.5218 137.824 69.0294 137.326 69.6093 136.785L72.169 134.457L72.8697 134.655L71.3085 140.145L70.6478 139.958L71.3127 137.62C71.5655 136.732 71.7581 136.083 72.0118 135.407L71.9899 135.391C71.5123 135.944 71.0004 136.467 70.4573 136.956L67.9819 139.203L67.2331 138.991L68.7938 133.501L69.4545 133.688Z" fill="#C4B998"/>
<path d="M75.2165 135.122L74.8409 137.48L77.5364 137.906L77.912 135.548L78.6393 135.663L77.742 141.3L77.0143 141.185L77.4349 138.542L74.7399 138.116L74.3188 140.759L73.5998 140.646L74.4975 135.008L75.2165 135.122Z" fill="#C4B998"/>
<path d="M87.393 139.064C87.3314 138.269 87.2581 137.314 87.2486 136.603L87.2237 136.603C87.0476 137.277 86.8306 137.994 86.5653 138.788L85.6373 141.582L85.0848 141.596L84.1062 138.901C83.8186 138.102 83.5747 137.372 83.399 136.699L83.3823 136.699C83.3831 137.41 83.3645 138.368 83.3354 139.225L83.2448 141.675L82.5502 141.693L82.8037 135.976L83.7325 135.953L84.7626 138.689C85.0138 139.386 85.2219 140.008 85.3788 140.597L85.4037 140.596C85.532 140.017 85.7175 139.385 85.9508 138.66L86.8874 135.874L87.8167 135.851L88.3081 141.549L87.5961 141.567L87.393 139.064Z" fill="#C4B998"/>
<path d="M93.0053 138.194L90.8349 138.516L91.1375 140.55L93.5563 140.191L93.647 140.802L90.5073 141.269L89.6686 135.626L92.6842 135.178L92.7748 135.789L90.4798 136.131L90.7451 137.914L92.9159 137.591L93.0053 138.194Z" fill="#C4B998"/>
<path d="M94.177 134.941C94.6072 134.756 95.0521 134.608 95.5071 134.497C96.0479 134.318 96.6358 134.346 97.1569 134.576C97.3522 134.683 97.5219 134.832 97.6543 135.011C97.7867 135.191 97.8787 135.396 97.9241 135.615C98.0536 136.044 98.0073 136.507 97.7954 136.903C97.6247 137.168 97.4016 137.396 97.14 137.572C96.8783 137.748 96.5835 137.869 96.2735 137.927C96.0842 137.981 95.8892 138.012 95.6925 138.019L96.244 140.237L95.5373 140.413L94.177 134.941ZM95.5472 137.436C95.75 137.432 95.9514 137.402 96.1469 137.348C96.9995 137.136 97.415 136.587 97.2254 135.824C97.0434 135.092 96.4438 134.866 95.6641 135.06C95.4391 135.109 95.2204 135.184 95.0124 135.283L95.5472 137.436Z" fill="#C4B998"/>
<path d="M104.308 134.627C104.983 136.471 104.232 137.855 102.879 138.35C101.48 138.863 100.095 138.126 99.5012 136.505C98.8786 134.804 99.5171 133.308 100.933 132.789C102.38 132.259 103.726 133.038 104.308 134.627ZM100.227 136.221C100.646 137.366 101.635 138.166 102.712 137.771C103.798 137.374 104.042 136.14 103.596 134.923C103.206 133.859 102.248 132.947 101.108 133.365C99.9754 133.78 99.7961 135.045 100.227 136.221L100.227 136.221Z" fill="#C4B998"/>
<path d="M108.2 129.601L110.776 134.695L110.126 135.024L107.829 130.481L105.49 131.662L107.787 136.205L107.137 136.534L104.561 131.439L108.2 129.601Z" fill="#C4B998"/>
<path d="M109.698 128.798C110.046 128.484 110.419 128.2 110.814 127.949C111.269 127.606 111.835 127.443 112.402 127.492C112.622 127.531 112.831 127.617 113.014 127.745C113.198 127.872 113.351 128.037 113.464 128.23C113.725 128.594 113.831 129.048 113.757 129.491C113.681 129.797 113.543 130.084 113.351 130.335C113.16 130.586 112.92 130.795 112.645 130.95C112.483 131.062 112.309 131.154 112.125 131.224L113.361 133.148L112.748 133.541L109.698 128.798ZM111.799 130.719C111.99 130.65 112.171 130.557 112.338 130.442C113.078 129.968 113.295 129.314 112.869 128.652C112.462 128.018 111.821 127.997 111.145 128.432C110.947 128.55 110.764 128.692 110.599 128.852L111.799 130.719Z" fill="#C4B998"/>
<path d="M114.267 125.623L115.774 127.496C116.342 128.201 116.796 128.793 117.234 129.417L117.253 129.413C117.103 128.774 116.99 128.072 116.885 127.287L116.466 123.855L117.034 123.399L120.61 127.844L120.075 128.274L118.552 126.381C117.974 125.662 117.556 125.129 117.151 124.532L117.126 124.541C117.301 125.25 117.43 125.969 117.515 126.694L117.915 130.01L117.308 130.498L113.732 126.053L114.267 125.623Z" fill="#C4B998"/>
<path d="M121.943 126.652C121.888 126.472 121.82 126.297 121.738 126.127C121.449 125.494 120.993 124.825 120.989 124.17C120.988 123.984 121.032 123.8 121.118 123.635L121.1 123.617C120.828 123.833 120.486 123.94 120.139 123.919C119.793 123.898 119.467 123.75 119.223 123.503C119.063 123.352 118.939 123.167 118.861 122.962C118.782 122.756 118.752 122.535 118.77 122.316C118.876 121.752 119.169 121.24 119.603 120.864C119.92 120.542 120.268 120.252 120.641 119.996L124.622 123.981L124.106 124.495L122.358 122.745L121.979 123.123C121.866 123.218 121.774 123.336 121.709 123.469C121.644 123.602 121.607 123.746 121.602 123.894C121.61 124.448 122.091 125.153 122.331 125.678C122.395 125.816 122.449 125.957 122.494 126.102L121.943 126.652ZM120.49 120.876C120.298 121.002 120.119 121.149 119.957 121.312C119.447 121.821 119.212 122.45 119.769 123.007C120.254 123.492 120.962 123.348 121.524 122.787C121.696 122.615 121.862 122.45 121.957 122.344L120.49 120.876Z" fill="#C4B998"/>
<path d="M122.897 118.248L121.804 119.57L121.32 119.172L123.983 115.954L124.466 116.353L123.367 117.681L127.285 120.917L126.816 121.484L122.897 118.248Z" fill="#C4B998"/>
<path d="M124.982 114.544L126.991 115.869C127.748 116.368 128.361 116.792 128.97 117.254L128.986 117.245C128.648 116.681 128.325 116.047 127.986 115.332L126.537 112.19L126.939 111.582L131.706 114.727L131.328 115.3L129.298 113.961C128.527 113.452 127.965 113.072 127.397 112.627L127.375 112.643C127.759 113.265 128.102 113.91 128.404 114.575L129.8 117.611L129.371 118.261L124.603 115.117L124.982 114.544Z" fill="#C4B998"/>
<path d="M127.421 108.166C127.671 108.252 127.944 108.294 128.118 107.941C128.289 107.596 128.11 107.405 127.874 107.251L128.124 106.748C128.243 106.81 128.347 106.897 128.43 107.003C128.513 107.109 128.571 107.231 128.603 107.362C128.634 107.492 128.637 107.628 128.611 107.76C128.585 107.892 128.531 108.016 128.452 108.125C128.412 108.251 128.345 108.366 128.256 108.464C128.167 108.561 128.058 108.638 127.936 108.689C127.815 108.741 127.684 108.766 127.552 108.762C127.42 108.759 127.29 108.727 127.172 108.669L127.421 108.166ZM128.082 109.521L130.237 110.589C131.049 110.991 131.71 111.337 132.371 111.721L132.385 111.709C131.981 111.191 131.583 110.602 131.158 109.933L129.335 106.994L129.658 106.341L134.774 108.875L134.469 109.49L132.291 108.411C131.463 108.002 130.86 107.693 130.241 107.321L130.222 107.34C130.678 107.91 131.098 108.508 131.48 109.131L133.238 111.973L132.892 112.67L127.777 110.136L128.082 109.521Z" fill="#C4B998"/>
<path d="M133.428 106.249C133.362 106.228 133.302 106.194 133.25 106.149C133.199 106.104 133.157 106.048 133.127 105.986C133.098 105.924 133.082 105.857 133.079 105.788C133.077 105.72 133.089 105.652 133.114 105.588C133.147 105.486 133.21 105.396 133.294 105.33C133.379 105.264 133.481 105.225 133.588 105.218C133.695 105.211 133.802 105.236 133.894 105.291C133.987 105.345 134.061 105.426 134.107 105.522C134.152 105.619 134.168 105.728 134.152 105.833C134.135 105.939 134.087 106.038 134.014 106.116C133.941 106.194 133.846 106.249 133.741 106.273C133.637 106.297 133.527 106.288 133.428 106.249Z" fill="#C4B998"/>
<path d="M121.111 59.0295L119.671 59.2402C115.02 52.8601 108.715 47.8689 101.435 44.8035C94.1544 41.7382 86.1737 40.7147 78.3512 41.8432C70.5287 42.9717 63.1605 46.2094 57.0392 51.2081C50.9178 56.2067 46.275 62.7772 43.61 70.2127L42.1753 70.4199C44.8238 62.6002 49.5886 55.6649 55.9408 50.3839C62.293 45.1029 69.9842 41.6826 78.1608 40.5028C86.3374 39.3229 94.6794 40.4296 102.261 43.7C109.843 46.9703 116.368 52.2765 121.111 59.0295Z" fill="#C4B998"/>
<path d="M123.479 58.6919L122.049 58.8947C117.238 51.9109 110.568 46.4107 102.793 43.0144C95.017 39.6181 86.4444 38.4609 78.042 39.6733C69.6395 40.8856 61.7413 44.4193 55.2383 49.8759C48.7353 55.3324 43.8861 62.4946 41.2377 70.5547L39.7864 70.768C42.4291 62.3351 47.4052 54.8194 54.1397 49.0891C60.8743 43.3589 69.0925 39.648 77.8449 38.3851C86.5973 37.1221 95.5269 38.3588 103.602 41.9521C111.677 45.5455 118.568 51.3489 123.479 58.6919Z" fill="#C4B998"/>
<path d="M113.807 57.1493C109.344 52.3717 103.788 48.7465 97.614 46.584C91.4404 44.4214 84.8332 43.7859 78.3577 44.7318C71.8822 45.6777 65.7312 48.1768 60.431 52.0153C55.1309 55.8537 50.8394 60.9173 47.9238 66.7727L113.807 57.1493Z" fill="#C4B998"/>
<path d="M54.5698 112.429C59.033 117.206 64.5891 120.831 70.7626 122.994C76.9361 125.156 83.5433 125.792 90.0187 124.846C96.4941 123.9 102.645 121.401 107.945 117.562C113.245 113.724 117.536 108.66 120.452 102.805L54.5698 112.429Z" fill="#C4B998"/>
<path d="M126.536 99.1249C125.009 103.588 122.789 107.783 119.956 111.556C115.727 117.212 110.217 121.787 103.878 124.906C97.5384 128.024 90.5506 129.597 83.4877 129.496C76.4247 129.395 69.4877 127.621 63.2459 124.322C57.004 121.023 51.6351 116.292 47.5796 110.516L49.0253 110.306C53.6665 116.7 59.9685 121.705 67.2511 124.779C74.5337 127.854 82.5201 128.882 90.348 127.753C98.176 126.623 105.548 123.379 111.668 118.37C117.789 113.361 122.425 106.778 125.076 99.332L126.536 99.1249Z" fill="#C4B998"/>
<path d="M128.894 98.7807C126.252 107.214 121.278 114.73 114.544 120.46C107.81 126.191 99.5929 129.902 90.841 131.165C82.0891 132.428 73.16 131.192 65.0855 127.598C57.0111 124.005 50.1208 118.202 45.2109 110.859L46.641 110.651C53.3998 120.446 63.7243 127.212 75.4116 129.503L75.4166 129.504C86.318 131.623 97.622 129.692 107.205 124.073C116.788 118.453 123.99 109.533 127.459 98.9874L128.894 98.7807Z" fill="#C4B998"/>
<path d="M148.268 96.163L148.303 95.9562C148.378 95.528 148.435 95.0978 148.501 94.6681L147.103 94.8728L147.102 94.8752L145.785 95.0653L144.493 95.2536L144.493 95.2551L129.281 97.4775L127.871 97.6844L126.959 97.8144L126.958 97.8189L125.519 98.0251L48.3173 109.302L46.8921 109.51L45.9697 109.643L44.5597 109.85L29.3373 112.075L28.0446 112.264L28.0451 112.265L26.7235 112.454L25.5797 112.624L25.58 112.624L25.3276 112.661C25.4794 112.983 25.623 113.309 25.7803 113.628L25.8255 113.727C25.8403 113.759 25.8574 113.791 25.8768 113.821C30.3329 122.717 36.7639 130.478 44.6795 136.511C52.5951 142.545 61.7863 146.692 71.5526 148.636L71.5577 148.637C83.5893 150.975 96.0393 149.879 107.482 145.476C118.924 141.072 128.897 133.539 136.257 123.738C142.386 115.623 146.502 106.173 148.268 96.163ZM45.2126 110.858L46.6427 110.651L47.5805 110.516L49.0262 110.306L125.077 99.3317L126.537 99.1247L126.538 99.1202L127.46 98.9871L128.895 98.7803L144.25 96.5659C141.8 109.012 135.54 120.392 126.336 129.133C117.132 137.874 105.439 143.543 92.8743 145.356C80.31 147.169 67.4953 145.036 56.2031 139.253C44.911 133.47 35.6994 124.322 29.8429 113.075L45.2126 110.858ZM146.873 96.2137C144.47 109.346 137.998 121.395 128.373 130.659C118.748 139.923 106.455 145.934 93.2311 147.842C80.0073 149.751 66.5208 147.461 54.6766 141.295C42.8323 135.13 33.229 125.401 27.2231 113.483L27.2085 113.455L28.5468 113.259C34.485 124.829 43.8924 134.254 55.4555 140.219C67.0186 146.184 80.1603 148.391 93.0457 146.532C105.931 144.673 117.917 138.841 127.33 129.849C136.743 120.858 143.113 109.156 145.551 96.378L146.878 96.1898L146.873 96.2137Z" fill="#C4B998"/>
<path d="M22.1912 77.0393L23.4575 76.8543L38.4026 74.6692L39.7917 74.4684L40.6941 74.3364L42.0687 74.1329L121.449 62.5363L122.838 62.3356L123.74 62.2036L125.114 62.0045L140.079 59.8186L141.351 59.6296L142.659 59.4377L143.786 59.275C143.637 58.9225 143.493 58.566 143.332 58.2161L142.189 58.3854L140.872 58.5755L139.595 58.7631L124.512 60.9662L123.127 61.1679L122.214 61.3029L120.81 61.5057L42.383 72.9654L40.9942 73.1661L40.0869 73.2971L38.6769 73.504L23.6245 75.7028L22.3475 75.8905L21.0303 76.0805L19.6345 76.2844C19.5842 76.6659 19.5482 77.0492 19.5049 77.4309L20.8786 77.2303L22.1912 77.0393Z" fill="#C4B998"/>
<path d="M148.34 75.5522C147.67 70.8918 146.496 66.3179 144.841 61.9105L143.734 62.0714L142.431 62.2643L141.181 62.4427L126.456 64.5962L125.117 64.7919L124.231 64.9217L122.877 65.1196L41.4362 77.0146L40.0935 77.2093L39.2169 77.3365L37.8529 77.537L23.1537 79.6862L21.9084 79.8651L20.6056 80.0579L19.4935 80.2185C18.8405 89.5658 20.2062 98.9425 23.498 107.713L24.6052 107.552L25.9129 107.36L27.158 107.18L41.8831 105.027L43.2263 104.832L44.1132 104.702L45.462 104.504L126.887 92.6108L128.256 92.4107L129.123 92.2822L130.471 92.0883L145.18 89.9364L146.43 89.7585L147.733 89.5652L148.841 89.4037C149.166 84.7815 148.998 80.1382 148.34 75.5522ZM45.6642 100.095L44.9305 94.7728L44.0656 85.5313L40.8057 100.767L38.0486 101.149L30.8036 87.3804L32.4697 96.4974L33.2034 101.819L29.1882 102.375L26.5041 82.9063L31.7508 82.1801L38.7034 95.6074L41.7354 80.7983L47.0088 80.0685L49.6929 99.5372L45.6642 100.095ZM65.7455 97.3152L63.8408 93.4894L56.8041 94.4633L56.0184 98.6614L51.7471 99.2526L56.3168 78.78L60.0373 78.2651L70.0168 96.7241L65.7455 97.3152ZM83.7261 94.1238C82.4178 94.7884 81.0044 95.2218 79.5484 95.4049C78.0423 95.6467 76.4991 95.4851 75.0766 94.9363C73.7304 94.3757 72.5826 93.4263 71.7801 92.2097C70.873 90.8034 70.295 89.2107 70.089 87.5499L69.9114 86.2616C69.6379 84.5825 69.7315 82.8638 70.1859 81.2237C70.5822 79.8304 71.3926 78.5898 72.5097 77.6662C73.6853 76.7321 75.0992 76.1458 76.5908 75.9741C78.84 75.6628 80.6727 75.9573 82.0888 76.8577C83.5037 77.7493 84.4696 79.2026 84.9867 81.2177L81.1826 81.7442C80.973 80.8479 80.4444 80.0585 79.6953 79.5231C78.9226 79.0811 78.0159 78.9333 77.1423 79.1071C76.5463 79.1584 75.9733 79.3615 75.478 79.6971C74.9828 80.0327 74.5818 80.4895 74.3136 81.0238C73.7563 82.1177 73.609 83.6499 73.8719 85.6205L74.0387 86.8308C74.3127 88.8176 74.8974 90.2663 75.7929 91.1767C76.2487 91.6302 76.8093 91.9644 77.4253 92.1497C78.0412 92.3351 78.6935 92.366 79.3245 92.2396C80.7921 92.0365 81.7956 91.5793 82.3348 90.8682L81.8845 87.6017L78.3282 88.0939L77.9317 85.2179L85.3958 84.1849L86.4382 91.7459C85.7612 92.7648 84.8252 93.5855 83.7261 94.1238ZM106.718 91.6447L105.984 86.3229L105.119 77.0813L101.859 92.3172L99.1023 92.6987L91.8574 78.9304L93.5235 88.0475L94.2572 93.3693L90.2419 93.925L87.5579 74.4563L92.8045 73.7301L99.7571 87.1574L102.789 72.3483L108.063 71.6185L110.747 91.0872L106.718 91.6447ZM114.419 90.5789L111.735 71.1101L124.772 69.3058L125.22 72.555L116.199 73.8036L116.838 78.4433L124.548 77.3762L124.982 80.5188L117.271 81.5859L117.99 86.8007L127.038 85.5485L127.482 88.771L114.419 90.5789ZM140.825 86.9243L136.188 80.3002L132.989 80.7428L133.972 87.8727L129.959 88.4281L127.275 68.9594L134.512 67.9579C136.815 67.639 138.662 67.9058 140.05 68.7583C141.443 69.6117 142.268 70.9739 142.526 72.8449C142.729 74.0102 142.586 75.2097 142.114 76.295C141.596 77.3261 140.79 78.1854 139.794 78.769L145.108 86.1405L145.133 86.3279L140.825 86.9243Z" fill="#C4B998"/>
<path d="M138.222 72.5811C138.035 72.2273 137.778 71.9152 137.466 71.664C137.1 71.4242 136.69 71.2603 136.259 71.182C135.829 71.1038 135.387 71.1127 134.959 71.2083L131.736 71.6545L132.541 77.4968L135.778 77.0488C136.635 76.985 137.436 76.5962 138.016 75.9619C138.26 75.6481 138.434 75.2859 138.527 74.8996C138.62 74.5133 138.629 74.1117 138.554 73.7217C138.522 73.3229 138.409 72.9349 138.222 72.5811Z" fill="#C4B998"/>
<path d="M57.4415 91.067L62.3132 90.3929L58.8558 83.4442L57.4415 91.067Z" fill="#C4B998"/>
<path d="M27.4853 111.086L27.4859 111.087L28.492 110.941L28.7613 110.903L43.8498 108.696L45.2389 108.496L46.152 108.361L47.5516 108.157L125.921 96.711L125.922 96.7057L127.342 96.5011L128.239 96.3682L129.639 96.1644L144.702 93.963L145.988 93.7768L147.301 93.5858L148.449 93.4175C148.497 93.0238 148.536 92.6234 148.583 92.2297L147.456 92.392L147.455 92.3969L146.148 92.5844L144.876 92.7728L129.921 94.9557L128.542 95.1588L127.65 95.2882L126.255 95.4924L46.8963 107.083L45.5063 107.289L44.6042 107.421L43.2259 107.619L28.2601 109.805L28.2598 109.804L26.9936 109.989L26.9939 109.99L25.6806 110.186L25.6787 110.181L24.3042 110.382C24.4608 110.75 24.6127 111.119 24.7759 111.485L25.4346 111.388L26.1717 111.282L27.4853 111.086Z" fill="#C4B998"/>
<path d="M20.0796 74.964L21.2223 74.7997L22.5463 74.6008L23.8325 74.415L39.023 72.1983L40.4542 71.9857L41.3769 71.853L42.7867 71.6462L120.055 60.3579L121.475 60.148L121.48 60.1489L122.398 60.0153L123.807 59.8133L139.029 57.5879L140.315 57.4021L141.639 57.208L142.782 57.0388L143.035 57.0016C142.875 56.6613 142.724 56.3172 142.557 55.9794L142.511 55.8861C142.496 55.8534 142.479 55.8218 142.46 55.7915C138.005 46.8943 131.575 39.1328 123.659 33.0991C115.743 27.0654 106.551 22.9189 96.7839 20.9758C88.2966 19.3209 79.5632 19.3699 71.0923 21.1198C62.6214 22.8697 54.5822 26.2856 47.4429 31.1686C40.3035 36.0516 34.2066 42.3041 29.5072 49.5621C24.8078 56.8201 21.5998 64.9386 20.0699 73.4448L20.0333 73.656C19.9557 74.1028 19.8952 74.5516 19.8273 74.9992L20.0799 74.9626L20.0796 74.964ZM123.123 58.7589L121.694 58.9616L120.761 59.0974L120.756 59.0964L119.315 59.3071L43.2549 70.2796L41.82 70.4869L40.8822 70.6217L39.4309 70.835L24.087 73.0468C26.5387 60.6023 32.7995 49.2233 42.0035 40.4838C51.2074 31.7443 62.8997 26.0761 75.4631 24.2631C88.0265 22.4502 100.84 24.5821 112.132 30.3639C123.424 36.1458 132.636 45.292 138.494 56.5374L123.123 58.7589ZM21.4633 73.3985C23.8669 60.2664 30.3385 48.2174 39.9639 38.9534C49.5893 29.6895 61.8821 23.6787 75.1059 21.7702C88.3296 19.8617 101.816 22.1519 113.66 28.3173C125.504 34.4827 135.108 44.2116 141.114 56.13L141.128 56.1577L139.795 56.3543C133.856 44.7859 124.449 35.3616 112.887 29.3971C101.324 23.4326 88.1834 21.2255 75.2987 23.0839C62.4141 24.9424 50.4286 30.7736 41.0153 39.7636C31.602 48.7537 25.2307 60.4538 22.7909 73.2307L21.4585 73.423L21.4633 73.3985Z" fill="#C4B998"/>
</svg>
