<svg width="70" height="70" viewBox="0 0 70 70" fill="none" xmlns="http://www.w3.org/2000/svg">
<path d="M22.685 39.5663C24.3564 47.3351 26.1825 54.8872 30.8252 61.5417C32.9609 59.5608 35.0036 57.6109 37.0774 55.661C37.9749 57.1157 37.6345 58.0752 36.3036 59.0037C34.6941 60.118 33.2394 61.4179 31.6299 62.6869C31.9395 63.1821 32.218 63.5845 32.6204 64.2035C34.3846 62.5631 36.056 60.9846 37.8202 59.3132C38.0368 60.0561 38.1916 60.6441 38.4392 61.4798C42.9581 54.7324 44.939 47.3351 46.5175 39.3806C51.4387 41.702 56.4528 43.4971 60.817 46.2828C66.9763 50.2445 69.2357 56.5586 69.1738 63.7393C69.1738 64.9154 68.4619 65.7201 67.3786 65.9678C64.8406 66.5868 62.3026 67.2368 59.7027 67.6391C50.2316 69.1557 40.7296 70.3009 31.1038 69.9295C21.9731 69.5891 12.9354 68.351 3.95952 66.7415C0.585831 66.1535 -0.249845 64.8535 0.0596673 61.4489C0.833448 53.0611 4.91902 47.0875 12.8116 43.8067C16.0305 42.4758 19.2804 41.021 22.685 39.5663Z" fill="#C4B998"/>
<path d="M35.6226 23.6574C33.9203 23.6574 32.4965 23.7193 31.0727 23.6265C30.7013 23.5955 30.2061 23.1003 30.0823 22.6979C29.4014 20.3456 30.0204 18.21 31.568 16.3839C32.4346 15.3625 33.4869 14.5268 34.4774 13.5983C35.7464 12.3912 36.7059 11.0912 36.613 9.17225C36.5202 7.09851 35.4059 5.73665 33.2703 5.73665C31.9084 5.73665 30.5156 6.01521 29.1847 6.32473C27.6371 6.69614 26.43 6.35568 25.9348 5.14858C25.3158 3.72483 25.7801 1.9606 27.1419 1.40348C31.1037 -0.236937 35.1583 -0.577399 39.151 1.12492C44.5365 3.41531 44.4127 10.2865 41.5652 13.5983C40.6057 14.7125 39.4915 15.7649 38.3463 16.6934C36.1488 18.4886 34.694 20.4385 35.6226 23.6574Z" fill="#C4B998"/>
<path d="M33.3943 26.6906C35.8085 26.6906 37.2632 27.9596 37.2632 30.1262C37.2632 32.2618 35.7775 33.6237 33.4562 33.6237C31.1039 33.6237 29.4944 32.1999 29.4635 30.0643C29.4325 27.9905 30.9801 26.6906 33.3943 26.6906Z" fill="#C4B998"/>
<path d="M32.9298 48.2327C34.0131 46.4066 32.8988 45.54 31.7536 44.5495C30.0823 43.0948 30.2061 42.5686 32.3417 41.8568C34.2297 41.2068 36.0868 41.3615 37.851 42.2901C38.5939 42.6924 38.8105 43.2186 38.1296 43.8686C36.5511 45.3852 34.9726 46.9018 33.3941 48.4184C33.2393 48.3256 33.0845 48.2946 32.9298 48.2327Z" fill="#C4B998"/>
<path d="M36.4276 51.7923C37.2942 53.3398 36.9538 54.2993 35.6538 55.166C34.261 56.0945 33.023 57.2088 31.3825 58.5087C31.8159 54.9493 34.911 54.0517 36.4276 51.7923Z" fill="#C4B998"/>
<path d="M32.4657 53.2158C32.0943 50.3683 34.6942 49.8421 35.7156 48.0469C36.5513 50.0587 36.5513 50.0587 35.0966 51.2039C34.2918 51.8539 33.4252 52.5039 32.4657 53.2158Z" fill="#C4B998"/>
</svg>
