<svg width="72" height="50" viewBox="0 0 72 50" fill="none" xmlns="http://www.w3.org/2000/svg">
<path d="M0.795727 3.63521L0.795727 3.63378C0.795801 2.87734 1.1049 2.12132 1.6271 1.59023C2.14886 1.05959 2.88632 0.750095 3.61864 0.75C3.61867 0.75 3.61869 0.75 3.61872 0.75H67.931C68.6634 0.750074 69.4009 1.05958 69.9227 1.59023C70.4449 2.12132 70.754 2.87735 70.754 3.6337C70.754 8.22528 70.7558 12.8666 70.7575 17.5303C70.761 26.925 70.7646 36.4102 70.754 45.7611L70.754 45.8234L70.7642 45.8849C70.9127 46.7784 70.6133 47.746 69.9944 48.3893C69.3765 49.0317 68.4404 49.351 67.5728 49.2216L67.5178 49.2134H67.4622H4.08201H4.0272L3.97297 49.2214C3.10772 49.3485 2.17526 49.0296 1.5587 48.3895C0.941294 47.7486 0.640934 46.7851 0.785988 45.8938L0.795727 45.8339V45.7733C0.795727 41.0823 0.792591 36.3916 0.789457 31.703C0.783193 22.3329 0.776936 12.9717 0.795727 3.63521ZM9.17341 6.5174H7.10312L8.69305 7.84338C10.9387 9.71624 14.1423 12.3042 17.7075 14.913C21.0536 17.3614 24.6994 19.8031 27.9823 21.5764C29.6354 22.4693 31.2271 23.1613 32.5686 23.6319C33.883 24.093 35.0333 24.3691 35.7749 24.3691C36.5165 24.3691 37.6667 24.093 38.9812 23.6319C40.3227 23.1613 41.9143 22.4693 43.5675 21.5764C46.8503 19.8031 50.4962 17.3614 53.8423 14.913C57.4075 12.3042 60.6111 9.71624 62.8567 7.84338L64.4466 6.5174H62.3764H9.17341ZM7.66262 14.3941L6.44156 13.4085V14.9777V38.8522V40.4115L7.65973 39.4381L23.4699 26.8054L24.3222 26.1243L23.3811 25.5725C20.3504 23.7952 17.2828 21.6941 14.423 19.6015C11.9405 17.785 9.62422 15.9774 7.66262 14.3941ZM65.1082 14.9777V13.4085L63.8871 14.3941C61.9255 15.9774 59.6093 17.785 57.1268 19.6015C54.267 21.6941 51.1994 23.7952 48.1687 25.5725L47.2276 26.1243L48.0799 26.8054L63.89 39.4381L65.1082 40.4115V38.8522V14.9777ZM30.3924 29.0594L29.9944 28.9112L29.6626 29.1764L13.4784 42.1101L11.8068 43.446H13.9466H57.6032H59.743L58.0714 42.1101L41.8872 29.1764L41.5554 28.9112L41.1574 29.0594C39.3407 29.7355 37.5706 30.1365 35.7749 30.1365C33.9792 30.1365 32.209 29.7355 30.3924 29.0594Z" stroke="url(#paint0_linear)" stroke-width="1.5"/>
<defs>
<linearGradient id="paint0_linear" x1="35.7759" y1="0" x2="35.7759" y2="50" gradientUnits="userSpaceOnUse">
<stop stop-color="#C3A758"/>
<stop offset="1" stop-color="#6B521E"/>
</linearGradient>
</defs>
</svg>
