<svg width="64" height="65" viewBox="0 0 64 65" fill="none" xmlns="http://www.w3.org/2000/svg">
<path d="M51.0805 62.9923L51.0517 62.9907H51.023C48.7399 62.9907 45.9855 62.2827 42.9933 61.0693C40.0142 59.8611 36.865 58.1791 33.812 56.2947C27.6986 52.5214 22.0571 47.9906 19.0401 44.9735C15.3594 41.2929 9.4404 33.7318 5.38265 26.1786C3.35241 22.3995 1.82358 18.6868 1.24812 15.5032C0.668589 12.2971 1.09155 9.86629 2.62009 8.33776L2.62216 8.33567C4.7348 6.21056 7.00475 4.24846 9.41248 2.466L9.98978 3.27264L20.9898 18.6426L21.7056 19.6428L22.5387 18.738C22.9525 18.2884 23.3545 17.8823 23.7159 17.5173C23.8463 17.3856 23.9714 17.2592 24.0898 17.1381C24.3026 16.9286 24.4336 16.6825 24.5119 16.4359C24.4296 16.7483 24.2864 16.9928 24.0965 17.1829C22.9909 18.2835 20.8784 20.3884 19.4396 22.6351C18.7222 23.7554 18.1184 24.9916 17.932 26.2156C17.7389 27.4845 17.996 28.7745 19.0347 29.8166C19.0347 29.8166 19.0347 29.8166 19.0347 29.8166L34.1547 44.9866L34.157 44.9889C35.1991 46.0276 36.4891 46.2848 37.758 46.0916C38.9821 45.9053 40.2182 45.3015 41.3385 44.584C43.5858 43.1448 45.6913 41.0315 46.7917 39.9262L46.7934 39.9244C47.2353 39.4783 47.9663 39.286 49.1534 39.5183C50.3329 39.7491 51.7483 40.366 53.2546 41.2205C56.253 42.9213 59.3484 45.4096 61.1806 46.9785C62.1554 47.8239 62.7811 49.0016 62.936 50.2827C62.9915 50.7421 62.9851 51.2029 62.9197 51.6537C62.9856 51.1672 62.9825 50.6704 62.9077 50.1778C62.7242 48.9702 62.1206 47.866 61.2032 47.0596L61.2032 47.0595L61.1947 47.0522C57.8129 44.1463 54.7493 42.0651 52.3741 40.8308C51.1923 40.2167 50.1414 39.7914 49.2834 39.5917C48.8561 39.4922 48.4315 39.4378 48.0396 39.4673C47.6604 39.4958 47.207 39.6124 46.8517 39.9579L45.8517 40.8886L44.9916 41.6891L45.9193 42.4102L60.7393 53.9302L61.5449 54.5564C59.7527 56.967 57.7827 59.2407 55.6512 61.3583C55.0399 61.9212 54.322 62.3559 53.5398 62.6367C52.7523 62.9195 51.9158 63.0404 51.0805 62.9923ZM13.8014 1.04712C13.5704 1.01575 13.3387 1.00016 13.1078 1.00001C13.3184 0.999656 13.5298 1.0121 13.7409 1.03762C15.0214 1.19245 16.1985 1.81763 17.0439 2.79164C18.5998 4.62622 21.0799 7.72078 22.7807 10.7191C23.2545 11.5543 23.656 12.3619 23.9596 13.1169C23.7625 12.6452 23.5236 12.1418 23.2466 11.6122C22.0074 9.24274 19.9169 6.18049 17.0133 2.78116L17.0134 2.78112L17.0062 2.7729C16.1819 1.82889 15.0433 1.21574 13.8014 1.04712Z" stroke="url(#paint0_linear)" stroke-width="2"/>
<defs>
<linearGradient id="paint0_linear" x1="31.9868" y1="0" x2="31.9868" y2="64.0026" gradientUnits="userSpaceOnUse">
<stop stop-color="#C3A758"/>
<stop offset="1" stop-color="#6B521E"/>
</linearGradient>
</defs>
</svg>
