<svg width="102" height="93" viewBox="0 0 102 93" fill="none" xmlns="http://www.w3.org/2000/svg">
<path d="M51.0551 90.5055C32.6494 90.5055 16.8993 79.1508 10.3063 63.0344H7.92547C14.6101 80.3412 31.459 92.7032 51.0551 92.7032C70.7427 92.7032 87.5 80.3412 94.1846 63.0344H91.8038C85.2108 79.1508 69.4607 90.5055 51.0551 90.5055Z" fill="#C4B998"/>
<path d="M51.0551 2.59783C69.4607 2.59783 85.2108 13.9525 91.8039 30.0689H94.1847C87.5001 12.7621 70.6512 0.400146 51.0551 0.400146C31.3675 0.400146 14.6102 12.7621 7.92552 30.0689H10.3063C16.8994 13.9525 32.6495 2.59783 51.0551 2.59783Z" fill="#C4B998"/>
<path d="M13.7861 63.1256H12.5957C19.0056 78.0515 33.84 88.4905 51.0552 88.4905C68.2704 88.4905 83.1048 78.0515 89.5148 63.1256H88.3243C82.006 77.4105 67.6294 87.3917 51.0552 87.3917C34.481 87.3917 20.1045 77.4105 13.7861 63.1256Z" fill="#C4B998"/>
<path d="M88.3243 30.069H89.5148C83.1048 15.143 68.2704 4.704 51.0552 4.704C33.84 4.704 19.0056 15.143 12.5957 30.069H13.7861C20.1045 15.784 34.481 5.80286 51.0552 5.80286C67.721 5.80286 82.006 15.784 88.3243 30.069Z" fill="#C4B998"/>
<path d="M76.7858 63.1259H75.4122C70.1011 70.9094 61.1273 76.1289 50.963 76.1289C40.7987 76.1289 31.8248 71.0009 26.5137 63.1259H25.1402C30.6344 71.5504 40.0661 77.2277 50.8714 77.2277C61.8598 77.2277 71.3831 71.5504 76.7858 63.1259Z" fill="#C4B998"/>
<path d="M25.3237 30.0688H26.6972C32.0083 22.2853 40.9821 17.0658 51.1465 17.0658C61.3108 17.0658 70.2847 22.1938 75.5957 30.0688H76.9693C71.4751 21.6443 62.0434 15.967 51.2381 15.967C40.2496 15.967 30.7263 21.5528 25.3237 30.0688Z" fill="#C4B998"/>
<path d="M97.9392 31.5338H4.17116C2.06504 31.5338 0.325195 33.2736 0.325195 35.3797V57.8144C0.325195 59.9205 2.06504 61.6604 4.17116 61.6604H97.9392C100.045 61.6604 101.785 59.9205 101.785 57.8144V35.3797C101.785 33.2736 100.045 31.5338 97.9392 31.5338ZM98.8549 57.8144C98.8549 58.2723 98.4886 58.7301 97.9392 58.7301H4.17116C3.71331 58.7301 3.25546 58.3639 3.25546 57.8144V35.3797C3.25546 34.9219 3.62174 34.464 4.17116 34.464H97.9392C98.397 34.464 98.8549 34.8303 98.8549 35.3797V57.8144Z" fill="#C4B998"/>
<path d="M4.07969 57.8146L97.9392 57.9062C97.9392 57.9062 98.0308 57.9062 98.0308 57.8146V35.3799L4.17124 35.2883L4.07969 57.8146ZM90.9799 39.2258H92.6282V43.6212C92.6282 43.8043 92.6281 43.9875 92.5366 44.1706C92.445 44.2622 92.3534 44.3538 92.2619 44.3538C92.1703 44.3538 92.0787 44.2622 91.9872 44.1706C91.8956 44.079 91.8956 43.8959 91.8956 43.7128L91.804 43.0718C91.7124 42.4308 91.6209 41.7898 91.4377 41.3319C91.3461 41.0572 91.163 40.7825 90.9799 40.5994V39.2258ZM87.5002 52.5951L87.5918 52.5035C87.6834 52.4119 87.6834 52.1372 87.6834 51.8625V39.2258H90.4305V51.8625C90.4305 52.1372 90.4304 52.3204 90.522 52.5035C90.522 52.5951 90.6136 52.5951 90.6136 52.5951C90.6136 52.5951 90.7052 52.6866 90.8883 52.6866C91.0715 52.7782 91.163 52.9614 91.163 53.2361C91.163 53.4192 91.0714 53.6024 90.9799 53.6939C90.8883 53.7855 90.7968 53.7855 90.6136 53.7855H87.5002C87.3171 53.7855 87.2255 53.7855 87.134 53.6023C87.0424 53.5108 86.9508 53.3276 86.9508 53.1445C86.9508 52.8698 87.0424 52.5951 87.2255 52.5951C87.4086 52.6867 87.5002 52.5951 87.5002 52.5951ZM85.5772 39.2258H87.2255V40.5078C87.0424 40.6909 86.8592 40.9656 86.7677 41.2404C86.5845 41.6982 86.4929 42.3392 86.4014 42.9802L86.3098 43.6212C86.3098 43.8043 86.2183 43.9875 86.2183 44.079C86.1267 44.1706 86.0351 44.2622 85.9435 44.2622C85.8519 44.2622 85.7604 44.1706 85.6688 44.079C85.5772 43.9875 85.5772 43.8043 85.5772 43.5296V39.2258ZM83.6542 50.1227V53.8771H81.0903V52.6866C81.365 52.5951 81.5481 52.5035 81.7313 52.4119C81.9144 52.3204 82.0975 52.0457 82.2807 51.8625C82.4638 51.5878 82.5554 51.3131 82.7385 51.0384C82.8301 50.7637 82.9217 50.3974 83.0133 49.9395C83.0133 49.6648 83.1048 49.5733 83.1964 49.4817C83.288 49.3901 83.288 49.3901 83.3795 49.3901C83.4711 49.3901 83.5627 49.4817 83.6542 49.5733C83.6542 49.6648 83.6542 49.848 83.6542 50.1227ZM81.0903 39.2258H83.5627V43.0718C83.5627 43.2549 83.5627 43.438 83.4711 43.5296C83.3796 43.6212 83.3795 43.7128 83.1964 43.7128C83.1048 43.7128 83.0133 43.7128 83.0133 43.6212C83.0133 43.5296 82.9217 43.4381 82.9217 43.2549C82.7385 42.4308 82.5554 41.7898 82.2807 41.3319C82.006 40.8741 81.5481 40.5994 81.0903 40.5078V39.2258ZM81.0903 45.8189C81.365 45.6357 81.5482 45.361 81.6397 45.1779C81.7313 44.9032 81.8229 44.6285 81.9144 44.2622C81.9144 43.9875 82.006 43.8043 82.006 43.7128C82.0976 43.6212 82.0976 43.5296 82.1891 43.5296C82.2807 43.5296 82.3723 43.6212 82.4638 43.8043C82.4638 43.8959 82.4638 44.079 82.4638 44.4453V48.566C82.4638 48.9323 82.4639 49.1154 82.3723 49.2986C82.3723 49.3901 82.2807 49.4817 82.0976 49.4817C82.006 49.4817 81.9144 49.3901 81.9144 49.2986C81.8229 49.207 81.8228 49.0238 81.8228 48.7491C81.7313 48.2913 81.6397 47.8334 81.5481 47.6503C81.4566 47.3756 81.2734 47.1924 81.0903 47.1009V45.8189ZM77.7022 40.5994C77.7022 40.5078 77.6106 40.5078 77.6106 40.5078C77.6106 40.5078 77.5191 40.4162 77.3359 40.3247C77.1528 40.2331 77.0612 40.05 77.0612 39.7753C77.0612 39.5921 77.0612 39.5005 77.1528 39.3174C77.2443 39.2258 77.3359 39.1343 77.5191 39.1343H80.4493V53.8771H77.6106C77.4275 53.8771 77.3359 53.8771 77.2443 53.6939C77.1528 53.6024 77.1528 53.4192 77.1528 53.2361C77.1528 52.9614 77.2443 52.7782 77.4275 52.6866C77.519 52.5951 77.6106 52.5951 77.7022 52.5035C77.7022 52.5035 77.7022 52.4119 77.7938 52.4119C77.8853 52.3204 77.8853 52.1372 77.8853 51.8625V41.0572C77.7938 40.9657 77.7937 40.7825 77.7022 40.5994ZM71.1092 39.2258C71.567 39.2258 71.9333 39.2258 72.2996 39.3174C72.7574 39.409 73.2152 39.6837 73.5815 40.1415C74.1309 40.7825 74.4057 41.7898 74.4057 42.9802C74.4057 43.9875 74.2225 44.8116 73.8563 45.4526C73.6731 45.7273 73.49 45.9105 73.3068 46.0936C73.1237 46.2767 72.7574 46.4599 72.3911 46.643C72.7574 46.7346 73.0321 46.8262 73.3068 47.0093C73.49 47.1009 73.6731 47.284 73.8563 47.4672C74.0394 47.6503 74.1309 47.925 74.2225 48.2913C74.3141 48.566 74.4057 48.9323 74.4057 49.2986V51.4962C74.4057 51.771 74.4056 51.8625 74.4972 51.8625C74.4972 51.8625 74.5888 51.8625 74.5888 51.7709C74.5888 51.7709 74.6804 51.6794 74.6804 51.5878C74.7719 51.3131 74.8635 51.2215 74.9551 51.2215C75.0466 51.2215 75.1382 51.3131 75.1382 51.4047C75.2298 51.4962 75.2298 51.6794 75.2298 51.7709C75.2298 51.9541 75.1382 52.2288 75.0467 52.5951C74.9551 52.8698 74.772 53.2361 74.5888 53.4192C74.4057 53.6939 74.2225 53.7855 74.0394 53.9687C73.8562 54.0602 73.5815 54.1518 73.3068 54.1518C72.7574 54.1518 72.2996 53.8771 72.0249 53.3276C71.7501 52.7782 71.567 52.0457 71.567 51.0384V49.207C71.567 48.8407 71.567 48.566 71.567 48.4744C71.567 48.1997 71.4754 47.925 71.3839 47.7419C71.2923 47.4671 71.1091 47.3756 70.8344 47.284V46.0936C71.0175 46.002 71.2007 45.9104 71.2923 45.8189C71.3838 45.7273 71.4754 45.5442 71.4754 45.361C71.4754 45.1779 71.4754 44.9947 71.4754 44.6285V41.7898C71.4754 41.3319 71.3838 40.9656 71.2923 40.7825C71.2007 40.5994 71.0176 40.4162 70.7429 40.2331V39.2258H71.1092ZM67.6294 40.5994C67.6294 40.5078 67.5379 40.5078 67.5379 40.5078C67.5379 40.5078 67.4463 40.4162 67.2632 40.3247C67.08 40.2331 66.9885 40.05 66.9885 39.7753C66.9885 39.5921 66.9885 39.5005 67.08 39.3174C67.1716 39.2258 67.2632 39.1343 67.4463 39.1343H70.3765V51.7709C70.3765 52.0457 70.3766 52.2288 70.4682 52.4119C70.4682 52.5035 70.5597 52.5035 70.5597 52.5035C70.5597 52.5035 70.6513 52.5951 70.8344 52.5951C71.0175 52.6867 71.1092 52.8698 71.1092 53.1445C71.1092 53.3276 71.0176 53.5108 70.926 53.6023C70.8344 53.6939 70.7428 53.6939 70.5597 53.6939H67.5379C67.3548 53.6939 67.2632 53.6939 67.1716 53.5108C67.08 53.4192 67.08 53.2361 67.08 53.0529C67.08 52.7782 67.1716 52.5951 67.3547 52.5035C67.4463 52.4119 67.5379 52.4119 67.6294 52.3204L67.721 52.2288C67.8126 52.1372 67.8126 51.9541 67.8126 51.6794V40.8741C67.721 40.9657 67.721 40.7825 67.6294 40.5994ZM64.6992 51.4962C64.5161 51.9541 64.3329 52.4119 64.1498 52.7782C63.8751 53.2361 63.6004 53.6024 63.3257 53.8771C63.051 54.1518 62.6847 54.2434 62.3184 54.2434V52.9614C62.5931 52.9614 62.9594 52.6866 63.3257 52.3204C63.5088 52.1372 63.692 51.8625 63.7835 51.4962C63.9667 51.13 64.0582 50.7637 64.1498 50.3058C64.1498 50.0311 64.2414 49.9396 64.3329 49.848C64.4245 49.7564 64.4245 49.6648 64.5161 49.6648C64.6077 49.6648 64.6992 49.7564 64.7908 49.848C64.8824 49.9396 64.8823 50.1227 64.8823 50.3058C64.9739 50.6721 64.8824 51.0384 64.6992 51.4962ZM62.3184 38.9511C62.5015 39.0427 62.6847 39.0427 62.7762 39.1343C62.8678 39.2258 63.1425 39.3174 63.4172 39.5005C63.6004 39.5921 63.7835 39.6837 63.8751 39.6837C63.9667 39.6837 64.0582 39.5921 64.1498 39.409L64.2414 39.1343C64.333 38.9511 64.4245 38.8596 64.5161 38.8596C64.6077 38.8596 64.6992 38.9511 64.7908 39.0427C64.8824 39.1342 64.8823 39.3174 64.8823 39.5921V44.079C64.8823 44.3538 64.8824 44.5369 64.7908 44.72C64.6992 44.8116 64.6077 44.9032 64.5161 44.9032C64.4245 44.9032 64.333 44.8116 64.2414 44.72C64.1498 44.6285 64.1498 44.4453 64.0582 44.1706C63.9667 43.6212 63.8751 43.1633 63.7835 42.7971C63.6004 42.1561 63.4172 41.6067 63.1425 41.1488C62.9594 40.8741 62.8678 40.5994 62.6847 40.5078C62.5015 40.3247 62.4099 40.2331 62.1352 40.2331V38.9511H62.3184ZM58.4724 43.7128C58.6556 42.7971 58.9303 41.9729 59.205 41.2404C59.5713 40.5078 59.9376 39.9584 60.3954 39.5921C60.8533 39.1343 61.3111 38.9511 61.6774 38.9511H61.8605V40.2331C61.5858 40.3247 61.4027 40.5078 61.3111 40.7825C61.2196 41.0572 61.128 41.5151 61.128 42.0645V51.4047C61.128 51.5878 61.1279 51.771 61.2195 51.9541C61.2195 52.1372 61.3111 52.3204 61.4027 52.4119C61.4942 52.5951 61.4943 52.6866 61.5858 52.6866C61.6774 52.7782 61.769 52.7782 61.8605 52.7782V54.0602C61.0364 54.0602 60.3954 53.6939 59.7544 52.9614C59.205 52.3204 58.8387 51.4962 58.564 50.3974C58.2893 49.2985 58.1977 48.0166 58.1977 46.5514C58.1977 45.6357 58.2893 44.6285 58.4724 43.7128ZM56.2748 50.1227V53.8771H53.7108V52.6866C53.9855 52.5951 54.1686 52.5035 54.3517 52.4119C54.5349 52.3204 54.7181 52.0457 54.9012 51.8625C55.0843 51.5878 55.1759 51.3131 55.3591 51.0384C55.4506 50.7637 55.5422 50.3974 55.6338 49.9395C55.6338 49.6648 55.7253 49.5733 55.8169 49.4817C55.9085 49.3901 55.9085 49.3901 56.0001 49.3901C56.0916 49.3901 56.1832 49.4817 56.2748 49.5733C56.2748 49.6648 56.2748 49.848 56.2748 50.1227ZM53.7108 39.2258H56.1832V43.0718C56.1832 43.2549 56.1832 43.438 56.0916 43.5296C56 43.6212 56 43.7128 55.8169 43.7128C55.7253 43.7128 55.6338 43.7128 55.6338 43.6212C55.6338 43.5296 55.5422 43.4381 55.5422 43.2549C55.3591 42.4308 55.1759 41.7898 54.9012 41.3319C54.6265 40.8741 54.1687 40.5994 53.7108 40.5078V39.2258ZM53.7108 45.8189C53.9855 45.6357 54.1686 45.361 54.2602 45.1779C54.3518 44.9032 54.4433 44.6285 54.5349 44.2622C54.5349 43.9875 54.6265 43.8043 54.6265 43.7128C54.7181 43.6212 54.7181 43.5296 54.9012 43.5296C54.9928 43.5296 55.0843 43.6212 55.1759 43.8043C55.1759 43.8959 55.1759 44.079 55.1759 44.4453V48.566C55.1759 48.9323 55.1759 49.1154 55.0844 49.2986C55.0844 49.3901 54.9927 49.4817 54.8096 49.4817C54.718 49.4817 54.6265 49.3901 54.6265 49.2986C54.5349 49.207 54.5349 49.0238 54.5349 48.7491C54.4433 48.2913 54.3518 47.8334 54.2602 47.6503C54.1686 47.3756 53.9855 47.1924 53.8023 47.1009V45.8189H53.7108ZM50.4142 40.5994C50.4142 40.5078 50.3227 40.5078 50.3227 40.5078C50.3227 40.5078 50.2311 40.4162 50.048 40.3247C49.8648 40.2331 49.7732 40.05 49.7732 39.7753C49.7732 39.5921 49.7733 39.5005 49.8648 39.3174C49.9564 39.2258 50.0479 39.1343 50.2311 39.1343H53.1613V53.8771H50.2311C50.0479 53.8771 49.9564 53.8771 49.8648 53.6939C49.7733 53.6024 49.7732 53.4192 49.7732 53.2361C49.7732 52.9614 49.8648 52.7782 50.048 52.6866C50.1396 52.5951 50.2311 52.5951 50.3227 52.5035C50.3227 52.5035 50.3227 52.4119 50.4142 52.4119C50.5058 52.3204 50.5058 52.1372 50.5058 51.8625V41.0572C50.4143 40.9657 50.4142 40.7825 50.4142 40.5994ZM44.8285 38.9511C45.1032 38.9511 45.2863 39.0427 45.4695 39.1343C45.6526 39.2258 45.9273 39.409 46.202 39.5921C46.2936 39.6837 46.3852 39.6837 46.3852 39.6837C46.4767 39.6837 46.4767 39.5921 46.5683 39.5005L46.6599 39.2258C46.7514 39.0427 46.843 38.9511 46.9346 38.9511C47.0261 38.9511 47.1177 39.0427 47.2093 39.1343C47.3008 39.3174 47.3009 39.5005 47.3009 39.7753V43.3465C47.3009 43.5296 47.3008 43.7128 47.2093 43.8959C47.1177 43.9875 47.0261 44.079 46.9346 44.079C46.843 44.079 46.7514 43.9875 46.7514 43.8959C46.7514 43.8043 46.6599 43.8043 46.6599 43.7128C46.6599 43.6212 46.6598 43.5296 46.5683 43.2549C46.4767 42.8886 46.4767 42.5223 46.2936 42.1561C46.202 41.7898 46.0189 41.4235 45.9273 41.1488C45.6526 40.5994 45.2863 40.1415 44.8285 39.9584V38.9511ZM41.7151 41.6067C41.8982 40.8741 42.1729 40.3247 42.5392 39.9584C42.9971 39.409 43.638 39.0427 44.279 38.9511V40.2331C44.0043 40.3247 43.8212 40.5078 43.7296 40.7825C43.638 41.0572 43.5465 41.3319 43.5465 41.6982C43.5465 42.0645 43.638 42.3392 43.7296 42.6139C43.8212 42.8886 44.0043 43.1633 44.279 43.3465C44.4622 43.5296 44.8285 43.8043 45.4695 44.2622C45.8358 44.5369 46.1104 44.8116 46.2936 44.9947C46.4767 45.1779 46.6599 45.5442 46.843 45.8189C47.3009 46.7346 47.5756 47.7418 47.5756 49.0238C47.5756 49.9395 47.484 50.7637 47.2093 51.5878C46.9346 52.3204 46.5683 52.9614 46.1104 53.4192C45.8357 53.6939 45.561 53.7855 45.2863 53.9687C45.0116 54.0602 44.7369 54.1518 44.4622 54.1518V52.9614C44.8284 52.7782 45.1031 52.5951 45.1947 52.3204C45.3779 52.0457 45.4695 51.6794 45.4695 51.2215C45.4695 50.7637 45.3779 50.3058 45.1032 49.9395C44.92 49.6648 44.6453 49.3901 44.1875 49.0238C43.638 48.6576 43.3634 48.3828 43.1802 48.1997C42.9971 48.0166 42.8139 47.8334 42.6308 47.6503C41.8982 46.643 41.4404 45.361 41.4404 43.8043C41.4404 43.0718 41.5319 42.2477 41.7151 41.6067ZM41.4404 49.207C41.4404 49.0238 41.4403 48.8407 41.5319 48.6576C41.6235 48.4744 41.7151 48.4744 41.8067 48.4744C41.8982 48.4744 41.9898 48.4744 41.9898 48.566C42.0813 48.6576 42.0814 48.8407 42.0814 49.1154C42.1729 49.7564 42.356 50.3058 42.4476 50.8552C42.6308 51.4047 42.8139 51.8625 43.0886 52.2288C43.3633 52.5951 43.6381 52.8698 43.9128 52.9614V54.1518C43.5465 54.1518 43.1802 53.9686 42.8139 53.6023C42.6308 53.5108 42.5392 53.4192 42.5392 53.3276C42.4476 53.3276 42.4476 53.2361 42.3561 53.2361C42.2645 53.2361 42.1729 53.2361 42.1729 53.3276C42.1729 53.4192 42.0813 53.5108 41.9898 53.6939C41.8982 53.8771 41.8066 53.9687 41.7151 53.9687C41.4403 53.9687 41.3488 53.6939 41.3488 53.0529V49.207H41.4404ZM31.7339 39.2258C32.5581 39.2258 33.1991 39.409 33.5653 39.6837C34.0232 40.05 34.3894 40.5078 34.6641 41.1488C34.9388 41.7898 35.122 42.7055 35.122 43.6212C35.122 44.72 34.9388 45.6357 34.6641 46.3683C34.3894 47.1009 34.0232 47.5587 33.4737 47.925C33.0159 48.1997 32.4665 48.2913 31.6423 48.2913V47.1009C31.8255 47.0093 31.9171 46.9177 32.0086 46.9177C32.1002 46.8262 32.1002 46.7346 32.1918 46.5514C32.2834 46.2767 32.2833 45.9104 32.2833 45.4526V41.9729C32.2833 41.6067 32.2833 41.4235 32.2833 41.2404C32.2833 41.0572 32.1917 40.9656 32.1002 40.7825C32.0086 40.5994 31.8255 40.4162 31.6423 40.4162V39.2258H31.7339ZM28.3458 40.5994C28.3458 40.5078 28.2542 40.5078 28.2542 40.5078C28.2542 40.5078 28.1627 40.4162 27.9795 40.3247C27.7964 40.2331 27.7048 40.05 27.7048 39.7753C27.7048 39.5921 27.7048 39.5005 27.7964 39.3174C27.8879 39.2258 27.9795 39.1343 28.1627 39.1343H31.0929V51.7709C31.0929 52.0457 31.0929 52.2288 31.1845 52.4119C31.1845 52.5035 31.2761 52.5035 31.2761 52.5035C31.2761 52.5035 31.3676 52.5951 31.5508 52.5951C31.7339 52.6867 31.8255 52.8698 31.8255 53.1445C31.8255 53.3276 31.7339 53.5108 31.6423 53.6023C31.5508 53.6939 31.4592 53.6939 31.2761 53.6939H28.1627C27.9795 53.6939 27.8879 53.6939 27.7964 53.5108C27.7048 53.4192 27.7048 53.2361 27.7048 53.0529C27.7048 52.7782 27.7964 52.5951 27.9795 52.5035C28.0711 52.4119 28.1626 52.4119 28.2542 52.3204C28.2542 52.3204 28.2542 52.2288 28.3458 52.2288C28.4374 52.1372 28.4374 51.9541 28.4374 51.6794V40.8741C28.4374 40.9657 28.4374 40.7825 28.3458 40.5994ZM22.3021 53.0529C22.3937 53.0529 22.4853 52.9614 22.5769 52.8698C22.6685 52.7782 22.6684 52.6867 22.76 52.5951C22.8516 52.3204 22.9432 51.8625 22.9432 51.2215V41.6067C22.9432 41.2404 22.9432 40.9657 22.8516 40.691C22.76 40.5078 22.76 40.4162 22.6685 40.3247C22.5769 40.2331 22.4853 40.1415 22.3938 40.05V38.8596C22.8516 38.8596 23.2179 39.0427 23.5842 39.3174C23.9504 39.5921 24.3167 40.05 24.5914 40.5078C25.4155 41.9729 25.8734 43.8959 25.8734 46.4599C25.8734 48.9323 25.5071 50.8552 24.683 52.3204C24.042 53.4192 23.3095 53.9686 22.3938 54.1518V53.0529H22.3021ZM18.6393 43.1633C18.8225 42.1561 19.1888 41.3319 19.555 40.5994C19.8298 40.05 20.1961 39.6837 20.5623 39.409C20.9286 39.1342 21.2949 38.9511 21.7527 38.9511V40.1415C21.5696 40.2331 21.3865 40.4162 21.2949 40.691C21.2033 40.8741 21.2033 41.2404 21.2033 41.6982V51.3131C21.2033 51.9541 21.2949 52.4119 21.3864 52.6866C21.478 52.8698 21.5696 53.0529 21.8443 53.1445V54.3349C20.9286 54.2434 20.196 53.6024 19.555 52.5035C18.7309 51.13 18.3646 49.207 18.3646 46.643C18.2731 45.361 18.4562 44.1706 18.6393 43.1633ZM14.885 39.2258H16.5332V43.6212C16.5332 43.8043 16.5333 43.9875 16.4417 44.1706C16.3501 44.2622 16.2586 44.3538 16.167 44.3538C16.0754 44.3538 15.9838 44.2622 15.8922 44.1706C15.8007 44.079 15.8007 43.8959 15.8007 43.7128L15.7091 43.0718C15.6176 42.4308 15.526 41.7898 15.3428 41.3319C15.2513 41.0572 15.0681 40.7825 14.885 40.5994V39.2258ZM11.4969 52.5951L11.5885 52.5035C11.68 52.4119 11.68 52.1372 11.68 51.8625V39.2258H14.4271V51.8625C14.4271 52.1372 14.4271 52.3204 14.5187 52.5035C14.5187 52.5951 14.6103 52.5951 14.6103 52.5951C14.6103 52.5951 14.7018 52.6866 14.885 52.6866C15.0681 52.7782 15.1597 52.9614 15.1597 53.2361C15.1597 53.4192 15.0681 53.6024 14.9765 53.6939C14.885 53.7855 14.7934 53.7855 14.6103 53.7855H11.4969C11.3137 53.7855 11.2222 53.7855 11.1306 53.6023C11.039 53.5108 10.9475 53.3276 10.9475 53.1445C10.9475 52.8698 11.039 52.5951 11.2222 52.5951C11.4053 52.6867 11.4969 52.5951 11.4969 52.5951ZM9.57391 39.2258H11.2222V40.5078C11.039 40.6909 10.8559 40.9656 10.7643 41.2404C10.5812 41.6982 10.4896 42.3392 10.398 42.9802L10.3065 43.6212C10.3065 43.8043 10.2149 43.9875 10.2149 44.079C10.1233 44.1706 10.0317 44.2622 9.94016 44.2622C9.84859 44.2622 9.75703 44.1706 9.66546 44.079C9.57389 43.9875 9.57391 43.8043 9.57391 43.5296V39.2258Z" fill="#C4B998"/>
<path d="M50.78 28.2376L51.8788 26.1314L54.2596 25.6736L52.6114 23.9338L52.9776 21.5529L50.78 22.6518L48.5823 21.5529L48.9486 23.9338L47.2087 25.6736L49.5896 26.1314L50.78 28.2376Z" fill="#C4B998"/>
<path d="M61.2182 29.611L61.9508 28.329L63.4159 28.0543L62.4087 26.9555L62.5918 25.4904L61.2182 26.2229L59.9363 25.4904L60.1194 26.9555L59.1121 28.0543L60.5773 28.329L61.2182 29.611Z" fill="#C4B998"/>
<path d="M40.8905 29.611L41.5315 28.329L42.9966 28.0543L41.9893 26.9555L42.1725 25.4904L40.8905 26.2229L39.517 25.4904L39.7917 26.9555L38.6928 28.0543L40.1579 28.329L40.8905 29.611Z" fill="#C4B998"/>
<path d="M50.7796 64.8658L51.8785 67.0635L54.2593 67.4297L52.611 69.1696L52.9773 71.642L50.7796 70.5431L48.5819 71.642L48.9482 69.1696L47.2084 67.4297L49.5892 67.0635L50.7796 64.8658Z" fill="#C4B998"/>
<path d="M61.2185 63.5837L61.9511 64.8657L63.4162 65.1404L62.409 66.1477L62.5921 67.6128L61.2185 66.9718L59.9366 67.6128L60.1197 66.1477L59.1124 65.1404L60.5776 64.8657L61.2185 63.5837Z" fill="#C4B998"/>
<path d="M40.8909 63.5837L41.5319 64.8657L42.9971 65.1404L41.9897 66.1477L42.1729 67.6128L40.8909 66.9718L39.5174 67.6128L39.7921 66.1477L38.6932 65.1404L40.1583 64.8657L40.8909 63.5837Z" fill="#C4B998"/>
<path d="M25.6909 26.498C25.5078 26.6811 25.4162 26.8642 25.2331 27.0474C25.0499 27.2305 24.8668 27.3221 24.7752 27.3221C24.5921 27.4137 24.4089 27.4137 24.3173 27.4137C24.1342 27.4137 23.9511 27.3221 23.8595 27.2305L21.0208 25.1244C20.8377 25.0328 20.7461 24.8497 20.6545 24.7581C20.563 24.575 20.563 24.3918 20.563 24.2087C20.563 24.0256 20.6546 23.8424 20.7461 23.6593C20.8377 23.4761 20.9292 23.293 21.1124 23.0183C21.2955 22.8351 21.3871 22.652 21.5702 22.4688C21.7534 22.2857 21.9365 22.1941 22.0281 22.1026C22.2112 22.011 22.3944 22.011 22.5775 22.011C22.7607 22.011 22.9438 22.1026 23.0354 22.1941L23.4932 22.5604L23.2185 22.9267C23.1269 23.0183 23.0354 23.1098 22.8522 23.2014C22.7607 23.2014 22.5775 23.2014 22.4859 23.1098L22.3944 23.0183C22.2113 22.9267 22.0281 22.8351 21.9365 22.9267C21.7534 23.0183 21.6618 23.1099 21.4787 23.293C21.3871 23.4761 21.2955 23.5677 21.2955 23.7508C21.2955 23.934 21.2956 24.1171 21.4787 24.2087L24.2258 26.2232C24.3174 26.3148 24.5005 26.3148 24.6837 26.3148C24.8668 26.2232 24.9584 26.1317 25.1415 25.9485C25.2331 25.857 25.2331 25.7654 25.3247 25.6738C25.3247 25.5822 25.4162 25.4907 25.4162 25.3991C25.4162 25.3075 25.4162 25.216 25.4162 25.1244C25.4162 25.0328 25.3247 25.0328 25.3247 24.9412L25.2331 24.8497C25.1415 24.7581 25.0499 24.6665 25.0499 24.575C25.0499 24.4834 25.0499 24.3003 25.2331 24.2087L25.5078 23.8424L26.0572 24.2087C26.2403 24.3003 26.3319 24.4834 26.3319 24.575C26.4235 24.7581 26.4235 24.9413 26.3319 25.1244C26.3319 25.3075 26.2403 25.4907 26.1488 25.6738C25.9656 26.1316 25.7825 26.3148 25.6909 26.498Z" fill="#C4B998"/>
<path d="M29.5375 22.1943C29.3544 22.3774 29.1713 22.469 28.9881 22.6522C28.805 22.7437 28.6218 22.8353 28.4387 22.9269C28.2556 22.9269 28.0724 22.9269 27.8893 22.9269C27.7062 22.9269 27.6146 22.8353 27.4314 22.6522L25.0506 20.0882C24.959 19.9051 24.8674 19.8135 24.7759 19.6303C24.7759 19.4472 24.7759 19.2641 24.7759 19.0809C24.8674 18.8978 24.959 18.7146 25.0506 18.5315C25.1421 18.3483 25.3253 18.1652 25.5084 17.9821C25.6916 17.7989 25.8747 17.7074 26.0579 17.5242C26.241 17.4326 26.4241 17.3411 26.6073 17.2495C26.7904 17.2495 26.9736 17.2495 27.1567 17.2495C27.3399 17.2495 27.4315 17.3411 27.6146 17.5242L29.9954 20.0882C30.087 20.2713 30.1785 20.3629 30.2701 20.546C30.2701 20.7292 30.2701 20.9123 30.2701 21.0954C30.1785 21.2786 30.087 21.4617 29.9954 21.6449C29.9038 21.828 29.7207 22.0112 29.5375 22.1943ZM26.9736 18.2568C26.882 18.1652 26.7904 18.1652 26.7904 18.1652C26.6989 18.1652 26.6073 18.1652 26.5157 18.1652C26.4242 18.1652 26.3326 18.2568 26.241 18.2568C26.1495 18.3484 26.0579 18.3483 26.0579 18.4399C25.9663 18.5315 25.9663 18.5315 25.8747 18.6231C25.7832 18.7146 25.7832 18.8062 25.7832 18.8978C25.7832 18.9893 25.7832 19.0809 25.7832 19.1725C25.7832 19.2641 25.8747 19.3556 25.8747 19.4472L28.2555 22.0112C28.3471 22.1027 28.4387 22.1027 28.4387 22.1027C28.5303 22.1027 28.6218 22.1027 28.7134 22.1027C28.805 22.1027 28.8966 22.0112 28.9881 22.0112C29.0797 21.9196 29.1712 21.9196 29.1712 21.828C29.2628 21.7365 29.2628 21.7364 29.3544 21.6449C29.446 21.5533 29.446 21.4617 29.446 21.3702C29.446 21.2786 29.446 21.187 29.446 21.0954C29.446 21.0039 29.3544 20.9123 29.3544 20.8207L26.9736 18.2568Z" fill="#C4B998"/>
<path d="M32.925 12.6704L33.0165 12.8535C33.0165 12.9451 33.1081 13.0367 33.0165 13.0367C33.0165 13.1283 33.0165 13.2198 32.925 13.2198V13.3114V13.403L35.4889 17.432C35.4889 17.432 35.4889 17.5236 35.4889 17.6152C35.4889 17.7068 35.3974 17.7068 35.3974 17.7984L34.9395 18.0731C34.848 18.1646 34.7564 18.1646 34.7564 18.0731C34.6648 18.0731 34.6648 17.9815 34.5732 17.9815C34.5732 17.9815 34.4817 17.8899 34.2985 17.7984C34.1154 17.7068 33.9322 17.5236 33.7491 17.432C33.5659 17.2489 33.2912 17.1573 33.0165 16.9742C32.7418 16.7911 32.5587 16.6079 32.284 16.5163C32.1008 16.3332 31.9177 16.2416 31.7346 16.1501C31.5514 16.0585 31.5514 15.9669 31.5514 15.9669L33.1081 18.4393C33.1081 18.5309 33.1997 18.5309 33.1997 18.5309H33.2912C33.3828 18.5309 33.3828 18.5309 33.4744 18.5309C33.5659 18.5309 33.566 18.6225 33.6575 18.7141L33.7491 18.8972L32.3755 19.7213L32.284 19.5382C32.284 19.4466 32.1924 19.355 32.284 19.355C32.284 19.2635 32.2839 19.1719 32.3755 19.1719V19.0803V18.9888L30.0863 15.4175C29.9947 15.4175 29.9947 15.4175 29.9032 15.4175C29.8116 15.4175 29.8116 15.4175 29.72 15.4175C29.6284 15.4175 29.6284 15.3259 29.5369 15.2344L29.4453 15.0512L30.4526 14.4102C30.5441 14.4102 30.5441 14.3187 30.6357 14.3187C30.7273 14.3187 30.7273 14.3187 30.8189 14.4102C30.8189 14.4102 30.9104 14.5018 31.002 14.5934C31.1851 14.685 31.2767 14.7765 31.5514 14.9597C31.7346 15.1428 32.0093 15.2344 32.284 15.4175C32.5587 15.6007 32.7418 15.7838 33.0165 15.9669C33.1997 16.1501 33.4744 16.2417 33.6575 16.4248C33.8407 16.5164 33.9323 16.6079 34.0238 16.6995L32.4671 14.1355L32.3755 14.044H32.284C32.1924 14.044 32.1924 14.044 32.1008 14.044C32.0092 14.044 32.0092 13.9524 31.9177 13.9524L31.8261 13.7692L32.925 12.6704Z" fill="#C4B998"/>
<path d="M38.694 10.1987C38.7855 10.1987 38.7855 10.1987 38.7855 10.2903L39.0603 11.0229L38.7855 11.1144C38.694 11.206 38.5108 11.206 38.4193 11.206C38.3277 11.206 38.2361 11.206 38.2361 11.1144C38.2361 11.0229 38.1446 11.0229 37.9614 11.1144L37.1373 11.4807C37.1373 11.4807 37.0457 11.4807 37.0457 11.5723V11.6639L37.6867 13.2206C37.6867 13.2206 37.6867 13.3121 37.7783 13.3121H37.8698L38.9687 12.8543C39.0602 12.8543 39.1518 12.8543 39.1518 12.9458L39.335 13.3121C39.335 13.4037 39.3349 13.4037 39.2434 13.4953L38.1446 13.9531C38.1446 13.9531 38.053 13.9531 38.053 14.0447V14.1363L38.694 15.6929C38.694 15.7845 38.694 15.7845 38.7855 15.7845H38.8771C38.9687 15.7845 38.9687 15.7845 39.0603 15.8761C39.1519 15.8761 39.1518 15.9677 39.2434 16.0592L39.335 16.2424L37.7783 16.8834L37.6867 16.7002C37.6867 16.6087 37.6867 16.5171 37.6867 16.5171C37.6867 16.4255 37.7783 16.4255 37.7783 16.334V16.2424V16.1508L36.2216 12.3049C36.2216 12.2133 36.13 12.2133 36.0384 12.2133C35.9468 12.2133 35.9469 12.2133 35.8553 12.1217C35.7638 12.1217 35.7637 12.0301 35.6722 11.9386L35.5806 11.7554L38.5108 10.565C38.5108 10.1987 38.6024 10.1987 38.694 10.1987Z" fill="#C4B998"/>
<path d="M44.0044 13.7692C44.0044 13.8608 44.0044 13.8608 44.096 13.8608H44.1875C44.2791 13.8608 44.2791 13.9524 44.3707 13.9524C44.4623 13.9524 44.4622 14.044 44.4622 14.1355L44.5538 14.3187L42.9055 14.6849L42.814 14.5018C42.814 14.4102 42.814 14.3187 42.814 14.3187C42.814 14.2271 42.9055 14.2271 42.9055 14.1355L42.9971 14.044V13.9524L41.9898 9.83172C41.9898 9.74015 41.9899 9.74014 41.8983 9.74014H41.8067C41.7152 9.74014 41.7152 9.64857 41.6236 9.64857C41.532 9.64857 41.532 9.55701 41.532 9.46544L41.4404 9.28229L43.0887 8.91602L43.1803 9.09917C43.1803 9.19074 43.1803 9.28229 43.1803 9.28229C43.1803 9.37386 43.0887 9.37387 43.0887 9.46544L42.9971 9.55702V9.64857L44.0044 13.7692Z" fill="#C4B998"/>
<path d="M48.1259 8.18384C48.4006 8.18384 48.6753 8.18384 48.8584 8.18384C49.0416 8.18384 49.2247 8.27539 49.4079 8.36696C49.591 8.45853 49.6826 8.5501 49.6826 8.73324C49.7742 8.91638 49.7741 9.00795 49.7741 9.19109L50.0489 12.396C50.0489 12.7623 49.9573 13.037 49.7741 13.3118C49.4994 13.5865 49.1331 13.678 48.5837 13.7696L46.4776 13.9528V13.7696C46.4776 13.678 46.4776 13.5865 46.4776 13.4949C46.4776 13.4033 46.5692 13.4033 46.6608 13.4033C46.7523 13.4033 46.7523 13.3118 46.7523 13.2202L46.3861 9.09954C46.3861 9.09954 46.386 9.00797 46.2945 9.00797C46.2945 9.00797 46.2029 9.00796 46.2029 8.91639C46.1114 8.91639 46.1113 8.82481 46.0198 8.82481C46.0198 8.73324 45.9282 8.73325 45.9282 8.55011V8.36696L48.1259 8.18384ZM48.8584 9.28266C48.8584 9.09952 48.7669 9.00796 48.6753 8.91639C48.5838 8.82482 48.4006 8.82481 48.2175 8.82481L47.4849 8.91639C47.3933 8.91639 47.3933 8.91639 47.3933 8.91639V9.00797L47.7596 13.2202V13.3118H47.8512L48.5837 13.2202C48.7669 13.2202 48.95 13.1286 49.0416 13.0371C49.1331 12.9455 49.1332 12.7623 49.1332 12.5792L48.8584 9.28266Z" fill="#C4B998"/>
<path d="M54.1698 8.82466C54.1698 8.82466 54.0782 8.91623 54.1698 8.82466L53.9866 10.4729C53.9866 10.5645 53.9866 10.5645 54.1698 10.5645L55.3602 10.6561H55.4517L55.5433 10.7476V11.2055C55.5433 11.2971 55.4518 11.2971 55.3602 11.2971L54.1698 11.2055C54.0782 11.2055 53.9866 11.2055 53.9866 11.2971L53.8035 13.0369C53.8035 13.1285 53.8035 13.1285 53.895 13.1285L54.9023 13.2201C54.9939 13.2201 54.9939 13.22 54.9939 13.1285C54.9939 13.0369 55.0855 12.9453 55.177 12.9453C55.2686 12.9453 55.3602 12.8538 55.5433 12.9453H55.9096L55.818 13.6779C55.818 13.7695 55.818 13.7695 55.7264 13.7695C55.6349 13.7695 55.6349 13.7695 55.5433 13.7695L54.9023 13.6779L52.9793 13.4948L52.3384 13.4032V13.2201C52.3384 13.1285 52.3384 13.0369 52.4299 12.9453C52.4299 12.8538 52.5215 12.8537 52.6131 12.8537C52.7046 12.8537 52.7962 12.7622 52.7962 12.6706L53.1625 8.54996V8.45839L53.0709 8.36681C52.9794 8.36681 52.9793 8.27523 52.8878 8.27523C52.8878 8.18366 52.8878 8.0921 52.8878 8.00053V7.81738L56.0927 8.09211C56.1843 8.09211 56.2759 8.09212 56.2759 8.18369L56.3674 8.27523L56.2759 9.09939H55.9096C55.7264 9.09939 55.6349 9.09938 55.5433 9.00781C55.4518 9.00781 55.3602 8.91623 55.4517 8.82466V8.73309L55.3602 8.64154L54.3529 8.54996C54.2613 8.82467 54.1698 8.82466 54.1698 8.82466Z" fill="#C4B998"/>
<path d="M63.3267 10.0152L63.2351 10.1983C63.2351 10.2899 63.1436 10.3814 63.1436 10.3814C63.052 10.3814 63.052 10.473 62.9604 10.473H62.8689C62.8689 10.473 62.8689 10.473 62.7773 10.5646L61.4953 15.1431C61.4953 15.2346 61.4037 15.2347 61.4037 15.2347C61.3122 15.2347 61.3121 15.2347 61.2206 15.2347L60.6712 15.0515C60.5796 15.0515 60.5796 14.96 60.488 14.96C60.488 14.8684 60.488 14.7768 60.488 14.6852C60.488 14.6852 60.488 14.5937 60.488 14.3189C60.488 14.1358 60.3965 13.8611 60.3965 13.678C60.3965 13.4033 60.3049 13.1285 60.3049 12.8538C60.3049 12.5791 60.2133 12.3044 60.2133 12.0297C60.2133 11.755 60.1218 11.5719 60.1218 11.3887C60.1218 11.2056 60.1218 11.114 60.1218 11.114L59.2976 13.8611C59.2976 13.9527 59.2976 13.9527 59.2976 13.9527C59.2976 13.9527 59.2976 14.0442 59.3892 14.0442C59.3892 14.0442 59.4808 14.1358 59.4808 14.2274C59.4808 14.3189 59.4808 14.4105 59.4808 14.4105L59.3892 14.5937L57.8325 14.1358L57.9241 13.9527C57.9241 13.8611 58.0156 13.7695 58.0156 13.7695C58.1072 13.7695 58.1072 13.678 58.1988 13.678H58.2904C58.2904 13.678 58.2903 13.678 58.3819 13.5864L59.5723 9.46573C59.4808 9.46573 59.4807 9.37416 59.3892 9.37416C59.3892 9.37416 59.2976 9.28258 59.2976 9.19101C59.2976 9.09944 59.2976 9.09945 59.2976 9.00788L59.3892 8.73315L60.488 9.00788C60.5796 9.00788 60.5796 9.09946 60.6712 9.09946C60.6712 9.09946 60.7627 9.19101 60.7627 9.28258C60.7627 9.28258 60.7627 9.37417 60.7627 9.55731C60.7627 9.74045 60.7628 9.92357 60.8543 10.1983C60.8543 10.473 60.9459 10.7477 60.9459 11.0224C60.9459 11.2971 61.0375 11.6634 61.0375 11.9381C61.0375 12.2128 61.129 12.4876 61.129 12.6707C61.129 12.8538 61.129 13.037 61.2206 13.1285L62.0447 10.2899C62.0447 10.1983 62.0447 10.1983 62.0447 10.1983C62.0447 10.1983 62.0448 10.1067 61.9532 10.1067C61.9532 10.1067 61.8616 10.0152 61.8616 9.92358C61.8616 9.83201 61.8616 9.74043 61.8616 9.74043L61.9532 9.55731L63.3267 10.0152Z" fill="#C4B998"/>
<path d="M69.7361 13.0369C69.7361 13.1285 69.7361 13.2201 69.7361 13.3116L69.6445 13.4948L69.3698 13.9526L68.9119 13.6779C68.8203 13.6779 68.7288 13.5863 68.7288 13.4948C68.7288 13.4032 68.7288 13.4032 68.7288 13.3116C68.7288 13.2201 68.7288 13.2201 68.6372 13.1285L68.1794 12.9454H68.0878C68.0878 12.9454 67.9962 12.9454 67.9962 13.0369L66.0733 16.7913V16.8829C66.0733 16.8829 66.0732 16.9744 66.1648 16.9744C66.1648 17.066 66.2564 17.066 66.2564 17.1576C66.2564 17.2492 66.2564 17.3407 66.2564 17.3407L66.1648 17.5239L64.6997 16.7913L64.7913 16.6082C64.7913 16.5166 64.8828 16.5166 64.9744 16.425C65.066 16.425 65.1576 16.425 65.1576 16.425H65.2491C65.2491 16.425 65.3407 16.425 65.3407 16.3335L67.2637 12.5791V12.4875L67.1721 12.3959L66.8058 12.2128H66.7142C66.7142 12.2128 66.6227 12.2128 66.6227 12.3044C66.6227 12.3959 66.5311 12.3959 66.4395 12.3959C66.3479 12.3959 66.2564 12.3959 66.0733 12.3044L65.6154 12.1212L65.7985 11.7549L65.8901 11.5718C65.9817 11.4802 65.9817 11.3887 66.0733 11.3887C66.1648 11.3887 66.2564 11.3886 66.4395 11.4802L69.3698 12.9454C69.5529 12.9454 69.6445 12.9454 69.7361 13.0369Z" fill="#C4B998"/>
<path d="M70.3772 19.3549C70.3772 19.4465 70.2856 19.4465 70.3772 19.4465V19.5381C70.3772 19.6296 70.3772 19.6296 70.4688 19.7212C70.4688 19.8127 70.4688 19.9043 70.3772 19.9043L70.2857 20.0875L68.9121 19.0802L69.0037 18.897C69.0952 18.8055 69.0952 18.8055 69.1868 18.8055C69.2784 18.8055 69.37 18.8055 69.37 18.8055H69.4615C69.4615 18.8055 69.5531 18.8055 69.5531 18.7139L72.0255 15.3258V15.2342V15.1427C72.0255 15.0511 72.0255 15.0511 71.9339 14.9595C71.9339 14.868 71.934 14.7764 72.0255 14.7764L72.1171 14.5933L73.4906 15.6005L73.3991 15.7837C73.3075 15.8752 73.3075 15.8752 73.2159 15.8752C73.1244 15.8752 73.0328 15.8752 73.0328 15.8752H72.9412C72.9412 15.8752 72.8496 15.8752 72.8496 15.9668L70.3772 19.3549Z" fill="#C4B998"/>
<path d="M75.1391 23.8419C75.1391 23.9335 75.1391 23.9335 75.1391 24.0251C75.1391 24.1166 75.1391 24.2082 75.0475 24.2082L74.8644 24.3913L73.674 23.2009L73.8571 23.0178C73.9487 22.9262 73.9487 22.9262 74.0402 22.9262C74.1318 22.9262 74.2234 22.9262 74.2234 22.9262H74.315H74.4065C74.4981 22.8346 74.4981 22.7431 74.5897 22.7431C74.5897 22.6515 74.6812 22.6515 74.6812 22.5599C74.6812 22.4684 74.7728 22.4684 74.7728 22.4684C74.7728 22.3768 74.7728 22.3768 74.7728 22.2852C74.7728 22.2852 74.7728 22.1937 74.6812 22.1937L73.8571 21.3695C73.7656 21.278 73.6739 21.278 73.5824 21.3695C73.5824 21.3695 73.4908 21.3695 73.4908 21.4611C73.3993 21.4611 73.3992 21.5527 73.3077 21.5527C73.2161 21.6442 73.1245 21.6442 73.1245 21.7358L73.033 21.8274V21.919C73.033 22.0105 73.033 22.0105 73.033 22.1021C73.033 22.1937 73.033 22.2852 72.9414 22.2852L72.7583 22.4684L71.5679 21.278L71.751 21.0948C71.8425 21.0032 71.8425 21.0033 71.9341 21.0033C72.0257 21.0033 72.1173 21.0033 72.1173 21.0033H72.2088H72.3004C72.9414 20.5454 73.5824 20.1791 74.1318 19.9044C74.4065 19.7213 74.5897 19.6297 74.7728 19.5381C74.956 19.4466 75.2307 19.2634 75.3222 19.1719C75.5054 19.0803 75.5969 18.9887 75.7801 18.8971C75.8717 18.8056 75.9632 18.8055 75.9632 18.8055L76.0548 18.714V18.6224C75.9632 18.4393 75.9632 18.3477 76.1464 18.1646L76.2379 18.073L77.1536 18.9887C77.2452 19.0803 77.3368 19.1718 77.3368 19.355C77.3368 19.4465 77.3368 19.5381 77.2452 19.6297C77.2452 19.6297 77.1536 19.7213 77.1536 19.8128C77.0621 19.9044 76.9705 20.0875 76.8789 20.2707C76.7874 20.4538 76.6042 20.637 76.5126 20.9117C76.3295 21.1864 76.2379 21.3695 76.0548 21.6442C75.6885 22.1937 75.3222 22.8347 74.8644 23.5672V23.6588C75.1391 23.8419 75.1391 23.8419 75.1391 23.8419ZM75.1391 21.7358L75.2307 21.8274H75.3222C75.3222 21.8274 75.3222 21.8274 75.4138 21.7358C75.4138 21.6442 75.5054 21.5527 75.5969 21.4611C75.6885 21.3695 75.7801 21.1864 75.8716 21.0948C75.9632 21.0032 76.0548 20.8201 76.1464 20.637L76.8789 19.4466L75.7801 20.1791C75.5969 20.2707 75.5054 20.3623 75.3222 20.4538C75.2307 20.5454 75.0475 20.637 74.9559 20.7285C74.8644 20.8201 74.7728 20.8201 74.6812 20.9117C74.5897 20.9117 74.5897 21.0033 74.5897 21.0033V21.0948C74.5897 21.0948 74.5897 21.1864 74.6812 21.1864L75.1391 21.7358Z" fill="#C4B998"/>
<path d="M78.8018 28.0542L78.1608 28.5121C78.0692 28.5121 78.0693 28.5121 77.9777 28.5121C77.8861 28.5121 77.8861 28.4205 77.8861 28.4205L77.7945 28.2374L76.0547 25.765L76.2378 25.6734C76.3294 25.5818 76.421 25.5818 76.5125 25.5818C76.6041 25.5818 76.6041 25.5818 76.6957 25.6734C76.6957 25.6734 76.7872 25.6734 76.7872 25.765H76.8788L80.267 23.3841C80.3585 23.3841 80.3585 23.2926 80.3585 23.2926V23.201C80.3585 23.1094 80.3585 23.1094 80.3585 23.0179C80.3585 22.9263 80.4501 22.8347 80.4501 22.8347L80.6332 22.7432L81.5489 24.1167L81.3658 24.2083C81.2742 24.2999 81.1827 24.2998 81.1827 24.2998C81.0911 24.2998 80.9995 24.2999 80.9995 24.2083H80.9079H80.8164L77.4282 26.5891L77.3367 26.6807V26.7723L77.8861 27.5048L77.9777 27.5964H78.0692C78.1608 27.5048 78.2524 27.5048 78.3439 27.5964C78.4355 27.6879 78.5271 27.7795 78.6186 27.8711L78.8018 28.0542Z" fill="#C4B998"/>
<path d="M20.5626 70.0853C20.3795 69.9021 20.2879 69.719 20.1963 69.4443C20.1048 69.2612 20.0132 69.078 20.0132 68.8949C20.0132 68.7117 20.0132 68.5286 20.1048 68.437C20.1964 68.2539 20.2879 68.1623 20.471 68.0708L23.3097 65.9646C23.4929 65.873 23.5845 65.7815 23.7676 65.7815C23.9507 65.7815 24.1339 65.7815 24.317 65.8731C24.5001 65.9646 24.6833 66.0562 24.7748 66.1478C24.958 66.3309 25.0496 66.5141 25.2327 66.6972C25.4158 66.8803 25.5074 67.0635 25.599 67.3382C25.6906 67.5213 25.7822 67.7045 25.7822 67.8876C25.7822 68.0707 25.7821 68.2539 25.6906 68.437C25.599 68.6202 25.5074 68.7117 25.3243 68.8033L24.8665 69.1696L24.5917 68.8033C24.5001 68.7117 24.4086 68.5286 24.4086 68.437C24.4086 68.3455 24.5001 68.1623 24.5917 68.1623L24.6833 68.0708C24.8664 67.9792 24.958 67.796 24.8665 67.6129C24.8665 67.4298 24.7749 67.2466 24.6833 67.155C24.5917 66.9719 24.4086 66.8803 24.2255 66.7888C24.0423 66.6972 23.8592 66.6972 23.7676 66.8803L21.0205 68.8949C20.9289 68.9864 20.8373 69.078 20.8373 69.2612C20.8373 69.4443 20.9289 69.6274 21.0205 69.719C21.1121 69.8106 21.1121 69.9022 21.2036 69.9022C21.2952 69.9937 21.3868 69.9937 21.4783 70.0853C21.5699 70.0853 21.6615 70.0853 21.753 70.1769C21.8446 70.1769 21.9362 70.1769 21.9362 70.0853L22.0277 69.9937C22.1193 69.9022 22.2109 69.9022 22.3024 69.9022C22.394 69.9022 22.5772 69.9937 22.6687 70.1769L22.9434 70.5431L22.394 70.9094C22.2109 71.001 22.1193 71.0926 21.9362 71.0926C21.7531 71.0926 21.5699 71.0926 21.4783 71.001C21.2952 70.9094 21.1121 70.8178 21.0205 70.6347C20.9289 70.4516 20.7458 70.2684 20.5626 70.0853Z" fill="#C4B998"/>
<path d="M25.142 75.2131C24.9589 75.03 24.7758 74.8468 24.6842 74.6637C24.5926 74.4805 24.5011 74.2974 24.4095 74.1143C24.3179 73.9311 24.3179 73.748 24.4095 73.5648C24.4095 73.3817 24.5011 73.2901 24.6842 73.107L27.065 70.543C27.1566 70.3599 27.3397 70.2683 27.5229 70.2683C27.706 70.2683 27.8892 70.2683 28.0723 70.2683C28.2555 70.2683 28.4386 70.3599 28.6217 70.543C28.8048 70.6346 28.988 70.8177 29.1711 71.0009C29.3542 71.184 29.5374 71.3671 29.629 71.5503C29.7205 71.7334 29.8121 71.9166 29.9037 72.0997C29.9953 72.2829 29.9953 72.466 29.9037 72.6491C29.9037 72.8323 29.8121 73.0154 29.629 73.107L27.2482 75.671C27.1566 75.8541 26.9734 75.9457 26.7903 75.9457C26.6072 75.9457 26.424 76.0373 26.2409 75.9457C26.0578 75.9457 25.8746 75.8541 25.6914 75.7625C25.5083 75.4878 25.3252 75.3962 25.142 75.2131ZM28.8964 72.3744C28.988 72.2828 28.988 72.1913 28.988 72.0997C28.988 72.0081 28.988 71.9166 28.988 71.825C28.988 71.7334 28.8964 71.6419 28.8964 71.5503C28.8048 71.4587 28.8048 71.3672 28.7133 71.3672C28.6217 71.2756 28.5301 71.2756 28.4386 71.184C28.347 71.0924 28.2554 71.0924 28.1639 71.0924C28.0723 71.0924 27.9807 71.0924 27.8892 71.0924C27.7976 71.0924 27.706 71.184 27.706 71.2756L25.3252 73.8395C25.2336 73.9311 25.2336 74.0227 25.2336 74.1143C25.2336 74.2058 25.2336 74.2974 25.2336 74.389C25.2336 74.4805 25.3252 74.5721 25.3252 74.6637C25.4168 74.7552 25.4167 74.8468 25.5083 74.8468C25.5999 74.9384 25.6914 74.9384 25.6914 75.03C25.783 75.1215 25.8746 75.1215 25.9661 75.1215C26.0577 75.1215 26.1493 75.1215 26.2409 75.1215C26.3325 75.1215 26.424 75.03 26.424 74.9384L28.8964 72.3744Z" fill="#C4B998"/>
<path d="M35.4883 75.6713L35.3967 75.8544C35.3967 75.946 35.3052 75.946 35.2136 75.946C35.122 75.946 35.0304 75.946 35.0304 75.946H34.9389C34.9389 75.946 34.8473 75.946 34.8473 76.0376L32.3749 80.0667L32.2833 80.1582C32.1918 80.1582 32.1917 80.1582 32.1002 80.1582L31.6423 79.8835C31.5508 79.792 31.5508 79.7919 31.5508 79.7004C31.5508 79.6088 31.5508 79.5172 31.5508 79.4257C31.5508 79.4257 31.5508 79.3341 31.6423 79.0594C31.6423 78.8763 31.7339 78.6931 31.7339 78.4184C31.7339 78.1437 31.8255 77.869 31.8255 77.5943C31.917 77.3196 31.917 77.0449 31.917 76.7701C31.917 76.4954 32.0086 76.3123 32.0086 76.1291C32.0086 75.946 32.0086 75.8544 32.0086 75.8544L30.4519 78.3268V78.4184V78.51C30.4519 78.6015 30.5435 78.6016 30.5435 78.6931C30.5435 78.7847 30.5435 78.8763 30.4519 78.8763L30.3604 79.0594L28.9868 78.2353L29.0784 78.0521C29.0784 77.9606 29.1699 77.9605 29.2615 77.9605C29.3531 77.9605 29.4447 77.9605 29.4447 77.9605H29.5362C29.5362 77.9605 29.6278 77.9605 29.6278 77.869L31.917 74.2977C31.8255 74.2062 31.8255 74.2062 31.8255 74.1146C31.8255 74.023 31.8255 74.023 31.8255 73.9315C31.8255 73.8399 31.8255 73.8399 31.917 73.7483L32.0086 73.5652L33.0159 74.2062C33.1074 74.2062 33.1075 74.2977 33.1075 74.2977C33.1075 74.3893 33.1075 74.3893 33.1075 74.4809C33.1075 74.4809 33.1074 74.5724 33.0159 74.7556C33.0159 74.9387 32.9243 75.1219 32.9243 75.3966C32.9243 75.6713 32.8327 75.946 32.7412 76.2207C32.6496 76.4954 32.6496 76.7701 32.558 77.0448C32.4665 77.3196 32.4665 77.5943 32.4665 77.7774C32.4665 77.9606 32.3749 78.1437 32.3749 78.2353L33.9316 75.6713V75.5797V75.4882C33.9316 75.3966 33.84 75.3966 33.84 75.305C33.84 75.2134 33.84 75.1219 33.84 75.1219L33.9316 74.9387L35.4883 75.6713Z" fill="#C4B998"/>
<path d="M40.2503 77.8693C40.2503 77.9609 40.3419 77.9609 40.2503 78.0525L39.9756 78.785L39.7008 78.6935C39.6093 78.6019 39.4261 78.6019 39.4261 78.5103C39.3346 78.4188 39.3346 78.3272 39.3346 78.3272C39.3346 78.2356 39.3346 78.2356 39.1514 78.1441L38.3273 77.7778H38.2357C38.2357 77.7778 38.1442 77.7778 38.1442 77.8693L37.5032 79.426V79.5176C37.5032 79.5176 37.5947 79.5176 37.5947 79.6092L38.6936 80.067C38.7851 80.067 38.7851 80.1586 38.7851 80.2502L38.602 80.6164C38.602 80.708 38.5104 80.708 38.4189 80.708L37.32 80.2502H37.2285C37.2285 80.2502 37.1369 80.2502 37.1369 80.3417L36.4959 81.8985C36.4959 81.99 36.4959 81.99 36.4959 81.99C36.4959 81.99 36.4959 82.0816 36.5875 82.0816C36.5875 82.1731 36.679 82.1732 36.679 82.2647C36.679 82.3563 36.679 82.4478 36.679 82.4478L36.5875 82.631L35.0308 81.99L35.1223 81.8069C35.1223 81.7153 35.2139 81.7153 35.3055 81.6237C35.397 81.6237 35.397 81.5321 35.4886 81.5321H35.5802C35.5802 81.5321 35.6718 81.5322 35.6718 81.4406L37.2285 77.5946C37.2285 77.5031 37.2284 77.4115 37.1369 77.4115C37.0453 77.3199 37.0453 77.3199 37.0453 77.2284C37.0453 77.1368 37.0453 77.0452 37.0453 76.9536L37.1369 76.7705L40.0671 77.9609C40.1587 77.7778 40.2503 77.7778 40.2503 77.8693Z" fill="#C4B998"/>
<path d="M42.5401 83.4548C42.5401 83.5464 42.5401 83.5464 42.5401 83.5464C42.5401 83.5464 42.5401 83.638 42.6317 83.638C42.6317 83.638 42.7233 83.7295 42.7233 83.8211C42.7233 83.9127 42.8148 84.0043 42.7233 84.0043L42.6317 84.1874L40.9834 83.8211L41.0749 83.638C41.0749 83.5464 41.1666 83.4548 41.1666 83.4548C41.2581 83.4548 41.2581 83.3632 41.3497 83.3632H41.4412C41.4412 83.3632 41.4412 83.3633 41.4412 83.2717L42.4485 79.151C42.4485 79.0595 42.4485 79.0595 42.4485 79.0595C42.4485 79.0595 42.4485 78.9679 42.357 78.9679C42.357 78.9679 42.2654 78.8763 42.2654 78.7847C42.2654 78.6932 42.1738 78.6016 42.2654 78.6016L42.357 78.4185L44.0052 78.7847L43.9137 78.9679C43.9137 79.0595 43.8221 79.151 43.8221 79.151C43.7305 79.151 43.7305 79.2426 43.639 79.2426H43.5474C43.5474 79.2426 43.5474 79.3342 43.4558 79.3342L42.5401 83.4548Z" fill="#C4B998"/>
<path d="M48.1252 79.3338C48.3999 79.3338 48.6746 79.4253 48.8578 79.5169C49.0409 79.6085 49.2241 79.7 49.3156 79.7916C49.4072 79.8832 49.4988 80.0663 49.5904 80.1579C49.682 80.341 49.6819 80.5242 49.6819 80.7073L49.4072 83.9123C49.4072 84.2786 49.2241 84.5533 48.9494 84.7364C48.6747 84.9195 48.2168 85.0111 47.6674 85.0111L45.4697 84.828V84.6449C45.4697 84.5533 45.4697 84.4617 45.5613 84.3701C45.5613 84.2786 45.6529 84.2786 45.7444 84.2786C45.836 84.2786 45.836 84.187 45.836 84.0954L46.2023 79.9748V79.8832L46.1107 79.7916C46.0191 79.7916 46.0191 79.7 45.9276 79.7C45.9276 79.6085 45.9276 79.5169 45.9276 79.4253V79.2422L48.1252 79.3338ZM48.6747 80.6157C48.6747 80.4326 48.6747 80.2495 48.5831 80.1579C48.4915 80.0663 48.3084 79.9748 48.1252 79.9748L47.3927 79.8832C47.3011 79.8832 47.3011 79.8832 47.3011 79.8832C47.3011 79.8832 47.3011 79.8832 47.3011 79.9748L46.9348 84.187V84.2786C46.9348 84.2786 46.9348 84.2786 47.0264 84.2786L47.759 84.3701C47.9421 84.3701 48.1253 84.3701 48.2168 84.2786C48.3084 84.187 48.3999 84.0038 48.3999 83.8207L48.6747 80.6157Z" fill="#C4B998"/>
<path d="M53.2533 79.975C53.2533 80.0666 53.2533 80.0666 53.2533 79.975L53.3448 81.6232C53.3448 81.7148 53.4364 81.7148 53.528 81.7148L54.7184 81.6232H54.8099C54.8099 81.6232 54.9015 81.6232 54.9015 81.7148V82.1727C54.9015 82.2642 54.9015 82.2642 54.7184 82.2642L53.528 82.3558C53.4364 82.3558 53.3448 82.4474 53.3448 82.4474L53.528 84.1872C53.528 84.2788 53.6195 84.2788 53.6195 84.2788L54.6268 84.1872C54.7184 84.1872 54.7184 84.1872 54.7184 84.0957C54.7184 84.0041 54.7184 83.9125 54.8099 83.9125C54.9015 83.8209 54.9931 83.8209 55.1762 83.8209H55.5425L55.6341 84.5535C55.6341 84.6451 55.6341 84.6451 55.5425 84.7366C55.451 84.7366 55.451 84.8282 55.3594 84.8282L54.7184 84.9198L52.7954 85.1029L52.1544 85.1945V85.0114C52.1544 84.9198 52.1544 84.8282 52.1544 84.7366C52.1544 84.6451 52.246 84.6451 52.3376 84.5535C52.4292 84.5535 52.4291 84.4619 52.4291 84.3704L52.0628 80.2497C52.0628 80.2497 52.0629 80.1581 51.9713 80.1581C51.9713 80.1581 51.8797 80.1581 51.8797 80.0666C51.7882 80.0666 51.7882 79.975 51.6966 79.975C51.6966 79.8834 51.605 79.8834 51.605 79.7918V79.6087L54.8099 79.334C54.9015 79.334 54.9931 79.334 54.9931 79.334C55.0847 79.334 55.0847 79.4256 55.0847 79.4256L55.1762 80.2497H54.8099C54.6268 80.2497 54.5353 80.2497 54.4437 80.2497C54.3521 80.2497 54.2605 80.1581 54.2605 80.0666V79.975H54.169L53.1617 80.0666C53.3448 79.975 53.3449 79.975 53.2533 79.975Z" fill="#C4B998"/>
<path d="M61.3128 77.6863L61.4044 77.8694C61.4044 77.961 61.4044 78.0526 61.4044 78.0526C61.4044 78.1441 61.3128 78.1441 61.3128 78.2357C61.3128 78.2357 61.3128 78.3273 61.2212 78.3273V78.4188L62.5032 82.9973C62.5032 83.0889 62.5032 83.0889 62.5032 83.1805C62.5032 83.2721 62.4116 83.2721 62.3201 83.2721L61.7707 83.4552C61.6791 83.4552 61.5875 83.4552 61.5875 83.4552C61.4959 83.4552 61.4959 83.3636 61.4044 83.2721C61.4044 83.2721 61.3128 83.1805 61.2212 82.9973C61.1296 82.8142 60.9465 82.7226 60.7634 82.4479C60.5802 82.2648 60.3971 81.9901 60.214 81.8069C60.0308 81.5322 59.8477 81.3491 59.6646 81.1659C59.4814 80.9828 59.3898 80.7997 59.2982 80.7081C59.2067 80.6165 59.1151 80.525 59.1151 80.525L59.9393 83.2721C59.9393 83.3636 59.9392 83.3636 60.0308 83.3636H60.1224C60.214 83.3636 60.2139 83.3636 60.3055 83.4552C60.3971 83.4552 60.3971 83.5468 60.3971 83.6383L60.4887 83.8215L58.9319 84.2793L58.8404 84.0962C58.8404 84.0046 58.8404 83.913 58.8404 83.913C58.8404 83.8215 58.9319 83.8215 58.9319 83.7299C58.9319 83.7299 58.932 83.7299 59.0235 83.6383V83.5468L57.8331 79.4261C57.7416 79.4261 57.7416 79.4261 57.65 79.4261C57.5584 79.4261 57.5584 79.4261 57.4668 79.3345C57.3753 79.3345 57.3753 79.243 57.3753 79.1514L57.2837 78.8767L58.3825 78.602C58.4741 78.602 58.5657 78.602 58.5657 78.602C58.6573 78.602 58.6572 78.602 58.6572 78.6936C58.6572 78.6936 58.7488 78.7851 58.8404 78.8767C58.932 78.9683 59.1151 79.1514 59.2067 79.4261C59.3898 79.6092 59.573 79.884 59.7561 80.0671C59.9392 80.3418 60.1224 80.525 60.3055 80.7997C60.4886 80.9828 60.6718 81.2575 60.7634 81.3491C60.8549 81.5322 60.9465 81.6238 61.0381 81.7154L60.214 78.8767C60.214 78.7851 60.214 78.7851 60.1224 78.7851H60.0308C59.9392 78.7851 59.9392 78.7851 59.8476 78.6936C59.7561 78.6936 59.7561 78.602 59.7561 78.5104L59.6646 78.3273L61.3128 77.6863Z" fill="#C4B998"/>
<path d="M66.7139 75.1223C66.8055 75.1223 66.8971 75.2139 66.8971 75.3055L66.9887 75.4886L67.1718 75.8549L66.7139 76.1296C66.6223 76.1296 66.5308 76.2212 66.4392 76.1296C66.3476 76.1296 66.3476 76.038 66.2561 76.038C66.2561 75.9464 66.1645 75.9464 66.073 76.038L65.6151 76.2212C65.6151 76.2212 65.5235 76.2212 65.5235 76.3127V76.4043L67.4465 80.1587L67.5381 80.2503H67.6296C67.7212 80.2503 67.7212 80.2503 67.8128 80.2503C67.9043 80.2503 67.9043 80.3418 67.9959 80.4334L68.0875 80.6165L66.6224 81.3491L66.5308 81.166C66.5308 81.0744 66.4392 80.9828 66.5308 80.9828C66.5308 80.8913 66.6224 80.7997 66.6224 80.7997V80.7081V80.6165L64.6994 76.8622C64.6994 76.8622 64.6994 76.7706 64.6078 76.7706H64.5163L64.15 76.9537C64.15 76.9537 64.0584 76.9537 64.0584 77.0453V77.1369C64.0584 77.2284 64.0584 77.32 64.0584 77.32C64.0584 77.4116 63.9668 77.4116 63.7837 77.5031L63.3259 77.6863L63.1427 77.2284L63.0511 77.0453C62.9595 76.9537 62.9595 76.8622 63.0511 76.7706C63.1427 76.679 63.2343 76.5874 63.3259 76.4959L66.2561 75.0308C66.5308 75.1223 66.6223 75.1223 66.7139 75.1223Z" fill="#C4B998"/>
<path d="M72.3916 77.1365C72.3916 77.2281 72.3916 77.2281 72.3916 77.1365C72.4832 77.2281 72.5748 77.2281 72.5748 77.2281C72.6663 77.2281 72.6663 77.2281 72.7579 77.2281C72.8495 77.2281 72.9411 77.3197 72.9411 77.3197L73.0326 77.5028L71.6591 78.5101L71.5675 78.3269C71.4759 78.2354 71.4759 78.1438 71.4759 78.1438C71.4759 78.0522 71.4759 77.9607 71.5675 77.9607V77.8691V77.7775L69.0951 74.3894L69.0035 74.2978H68.912C68.8204 74.2978 68.8204 74.2978 68.7288 74.2978C68.6372 74.2978 68.5456 74.2063 68.5456 74.2063L68.4541 74.0231L69.8277 73.0159L69.9192 73.199C70.0108 73.2906 70.0108 73.3821 70.0108 73.3821C70.0108 73.4737 70.0108 73.5653 69.9192 73.5653V73.6569V73.7484L72.3916 77.1365Z" fill="#C4B998"/>
<path d="M77.8859 72.466C77.9774 72.466 77.9774 72.466 78.069 72.466C78.1606 72.466 78.2522 72.466 78.2522 72.5576L78.4353 72.7407L77.2449 73.9311L77.0618 73.748C76.9702 73.6564 76.9702 73.6564 76.9702 73.5648C76.9702 73.4733 76.9702 73.4733 76.9702 73.3817V73.2901V73.1986C76.8786 73.107 76.787 73.107 76.787 73.0154C76.6954 73.0154 76.6955 72.9238 76.6039 72.9238C76.5123 72.9238 76.5123 72.8323 76.5123 72.8323C76.4207 72.8323 76.4207 72.8323 76.3292 72.8323C76.3292 72.8323 76.2376 72.8323 76.2376 72.9238L75.4135 73.748C75.3219 73.8395 75.3219 73.9311 75.4135 74.0227C75.4135 74.0227 75.4135 74.1143 75.5051 74.1143C75.5051 74.2058 75.5966 74.2058 75.5966 74.2974C75.6882 74.389 75.6882 74.4805 75.7798 74.4805L75.8713 74.5721H75.9629C76.0545 74.5721 76.0545 74.5721 76.1461 74.5721C76.2376 74.5721 76.3292 74.5721 76.3292 74.6637L76.5123 74.8468L75.3219 76.0372L75.2304 75.8541C75.1388 75.7625 75.1388 75.7625 75.1388 75.671C75.1388 75.5794 75.1388 75.4878 75.1388 75.4878V75.3963V75.3047C74.6809 74.6637 74.3146 74.0227 74.0399 73.4733C73.8568 73.1986 73.7652 73.0154 73.6737 72.8323C73.5821 72.6491 73.3989 72.3744 73.3074 72.2829C73.2158 72.0997 73.1242 72.0082 73.0327 71.825C72.9411 71.7334 72.9411 71.6419 72.9411 71.6419L72.8495 71.5503H72.758C72.5748 71.6419 72.4832 71.6419 72.3001 71.4587L72.2085 71.3672L73.1242 70.4515C73.2158 70.3599 73.3074 70.2683 73.4905 70.2683C73.5821 70.2683 73.6736 70.2683 73.7652 70.3599C73.7652 70.3599 73.8568 70.4515 73.9484 70.4515C74.0399 70.543 74.2231 70.6346 74.4062 70.7262C74.5893 70.8177 74.7725 71.0009 75.0472 71.0924C75.3219 71.2756 75.505 71.3671 75.7798 71.5503C76.3292 71.9166 76.9702 72.2829 77.7027 72.7407H77.7943C77.7943 72.466 77.7943 72.466 77.8859 72.466ZM75.6882 72.466L75.7798 72.3744V72.2829C75.7798 72.2829 75.7798 72.2829 75.6882 72.1913C75.5966 72.1913 75.505 72.0997 75.4135 72.0081C75.3219 71.9166 75.1388 71.825 75.0472 71.7334C74.9556 71.6419 74.7725 71.5503 74.5894 71.4587L73.4905 70.7262L74.2231 71.9166C74.3146 72.0997 74.4062 72.1913 74.4978 72.3744C74.5893 72.466 74.6809 72.6491 74.7725 72.7407C74.8641 72.8323 74.864 72.9238 74.9556 73.0154C75.0472 73.107 75.0472 73.107 75.0472 73.107H75.1388C75.1388 73.107 75.2304 73.107 75.2304 73.0154L75.6882 72.466Z" fill="#C4B998"/>
<path d="M81.2748 67.0634L81.9158 67.5213C82.0074 67.5213 82.0073 67.6129 82.0073 67.7044C82.0073 67.796 82.0074 67.796 81.9158 67.8876L81.8242 68.0707L80.0844 70.5431L79.9012 70.4515C79.8097 70.36 79.7181 70.36 79.7181 70.2684C79.7181 70.1768 79.7181 70.1768 79.7181 70.0852V69.9937C79.7181 69.9937 79.7181 69.9021 79.6265 69.9021L76.2384 67.5213C76.1468 67.5213 76.1469 67.5213 76.1469 67.5213H76.0553C75.9637 67.5213 75.9637 67.6129 75.8721 67.6129C75.7805 67.6129 75.689 67.6129 75.689 67.5213L75.5059 67.4297L76.4216 66.0562L76.6047 66.1477C76.6963 66.2393 76.6963 66.2393 76.6963 66.3309C76.6963 66.4225 76.6963 66.514 76.6963 66.514V66.6056C76.6963 66.6056 76.6962 66.6972 76.7878 66.6972L80.1759 69.078H80.2675C80.2675 69.078 80.3591 69.078 80.3591 68.9864L80.8169 68.2538V68.1623C80.8169 68.1623 80.8169 68.0707 80.7254 68.0707C80.6338 67.9791 80.6338 67.8876 80.6338 67.796C80.6338 67.7044 80.7254 67.6128 80.8169 67.4297L81.2748 67.0634Z" fill="#C4B998"/>
</svg>
