<svg width="130" height="72" viewBox="0 0 130 72" fill="none" xmlns="http://www.w3.org/2000/svg">
<path d="M31.3793 71.7241C26.8966 71.7241 26.8966 44.8276 22.4138 44.8276H0C4.48276 44.8276 4.48276 71.7241 8.96552 71.7241H31.3793Z" fill="#0B5E9E"/>
<path d="M31.3793 71.7241C26.8966 71.7241 26.8966 44.8276 22.4138 44.8276H0C4.48276 44.8276 4.48276 71.7241 8.96552 71.7241H31.3793Z" fill="#C4B998" fill-opacity="0.8"/>
<path d="M76.207 71.7241C67.2415 71.7241 62.7587 0 53.7932 0H31.3794C40.3449 0 44.8277 71.7241 53.7932 71.7241H76.207Z" fill="#0B5E9E"/>
<path d="M76.207 71.7241C67.2415 71.7241 62.7587 0 53.7932 0H31.3794C40.3449 0 44.8277 71.7241 53.7932 71.7241H76.207Z" fill="#C4B998" fill-opacity="0.8"/>
<path d="M121.035 71.7241C112.069 71.7241 107.586 0 98.6208 0H76.207C85.1725 0 89.6553 71.7241 98.6208 71.7241H121.035Z" fill="#0B5E9E"/>
<path d="M121.035 71.7241C112.069 71.7241 107.586 0 98.6208 0H76.207C85.1725 0 89.6553 71.7241 98.6208 71.7241H121.035Z" fill="#C4B998" fill-opacity="0.8"/>
<path d="M8.96533 71.7241C17.9308 71.7241 22.4136 0 31.3791 0H53.7929C44.8274 0 40.3446 71.7241 31.3791 71.7241H8.96533Z" fill="#2196F3"/>
<path d="M8.96533 71.7241C17.9308 71.7241 22.4136 0 31.3791 0H53.7929C44.8274 0 40.3446 71.7241 31.3791 71.7241H8.96533Z" fill="#C4B998"/>
<path d="M52.5977 71.7241C61.5632 71.7241 66.0459 0 75.0115 0H97.4252C88.4597 0 83.977 71.7241 75.0115 71.7241H52.5977Z" fill="#2196F3"/>
<path d="M52.5977 71.7241C61.5632 71.7241 66.0459 0 75.0115 0H97.4252C88.4597 0 83.977 71.7241 75.0115 71.7241H52.5977Z" fill="#C4B998"/>
<path d="M98.6206 71.7241C103.103 71.7241 103.103 44.8276 107.586 44.8276H130C125.517 44.8276 125.517 71.7241 121.034 71.7241H98.6206Z" fill="#2196F3"/>
<path d="M98.6206 71.7241C103.103 71.7241 103.103 44.8276 107.586 44.8276H130C125.517 44.8276 125.517 71.7241 121.034 71.7241H98.6206Z" fill="#C4B998"/>
</svg>
